<?xml version="1.0" encoding="UTF-8" standalone="no"?>
<svg
   version="1.0"
   viewBox="0 0 552.945 550.677"
   id="svg4347"
   sodipodi:docname="gut_for_word_cloud_transparent.svg"
   inkscape:version="1.2.2 (1:1.2.2+202305151915+b0a8486541)"
   inkscape:export-filename="gut_for_word_cloud.png"
   inkscape:export-xdpi="500"
   inkscape:export-ydpi="500"
   xmlns:inkscape="http://www.inkscape.org/namespaces/inkscape"
   xmlns:sodipodi="http://sodipodi.sourceforge.net/DTD/sodipodi-0.dtd"
   xmlns="http://www.w3.org/2000/svg"
   xmlns:svg="http://www.w3.org/2000/svg">
  <sodipodi:namedview
     id="namedview4349"
     pagecolor="#ffffff"
     bordercolor="#000000"
     borderopacity="0.25"
     inkscape:showpageshadow="2"
     inkscape:pageopacity="0.0"
     inkscape:pagecheckerboard="0"
     inkscape:deskcolor="#d1d1d1"
     showgrid="false"
     inkscape:zoom="0.85712677"
     inkscape:cx="-113.75213"
     inkscape:cy="349.42322"
     inkscape:window-width="1920"
     inkscape:window-height="1016"
     inkscape:window-x="0"
     inkscape:window-y="0"
     inkscape:window-maximized="1"
     inkscape:current-layer="svg4347" />
  <defs
     id="defs3691">
    <clipPath
       clipPathUnits="userSpaceOnUse"
       id="a">
      <path
         d="M1.52.4h552.304v551.106H1.52z"
         id="path3688" />
    </clipPath>
  </defs>
  <g
     id="g4518"
     transform="translate(107.91869,-178.42132)"
     style="opacity:0.3">
    <path
       d="m 153.027,472.314 c -0.44,5.916 5.557,16.63 18.909,15.19 13.352,-1.439 17.59,-8.075 17.59,-8.075 0.879,5.717 24.065,22.067 33.859,4.997 4.237,0.48 10.913,-3.557 14.67,-18.988 5.118,-20.907 -6.435,-42.015 -9.114,-47.012 5.997,-12.352 1.56,-33.5 -5.556,-37.297 -7.596,-4.038 -14.032,2.159 -27.624,11.873 -13.591,9.754 -32.06,9.274 -37.417,3.358 -0.88,-1.2 -2.199,-2.399 -2.878,-3.358 -4.438,-6.156 -11.793,-15.191 -20.708,-9.235 -6.236,4.038 -5.996,19.469 -4.437,29.183 -8.275,7.595 -4.237,36.817 3.118,48.69 4.437,7.116 9.994,13.512 19.588,10.674 z"
       fill="#e6c1c7"
       fill-rule="evenodd"
       id="path4081" />
    <path
       d="m 153.067,472.354 c -0.44,5.916 5.557,16.63 18.909,15.19 13.352,-1.439 17.59,-8.075 17.59,-8.075 0.879,5.717 24.065,22.067 33.859,4.997 4.237,0.48 10.913,-3.557 14.67,-18.988 5.118,-20.907 -6.435,-42.015 -9.114,-47.012 0,0 0,0 0,0 5.997,-12.352 1.56,-33.5 -5.556,-37.297 -7.596,-4.038 -14.032,2.159 -27.624,11.873 -13.591,9.754 -32.06,9.274 -37.417,3.358 -0.88,-1.2 -2.199,-2.399 -2.878,-3.358 -4.438,-6.156 -11.793,-15.191 -20.708,-9.235 -6.236,4.038 -5.996,19.469 -4.437,29.183 -8.275,7.595 -4.237,36.817 3.118,48.69 4.437,7.116 9.994,13.512 19.588,10.674"
       fill="none"
       stroke="#1a171b"
       stroke-width="1.359"
       stroke-linecap="round"
       stroke-linejoin="round"
       stroke-miterlimit="10"
       id="path4083" />
    <path
       d="m 217.308,446.41 c 1.08,-1.64 3.758,-4.718 6.197,-13.752 2.678,-12.792 3.597,-23.706 -0.88,-32.02 -4.437,-8.995 -11.793,-10.914 -15.59,-3.559 0,-0.24 0.24,-0.24 0.24,-0.44 -0.88,1.16 -3.319,1.16 -6.677,0.44 -2.878,-0.44 -5.556,-1.879 -5.796,-3.558 -1.56,6.437 -4.437,10.674 -9.115,13.552 -11.553,6.636 -18.908,3.758 -26.024,-1.439 -6.476,-4.997 -13.152,-9.954 -19.588,-7.116 -6.476,2.839 -5.117,10.434 -0.44,16.83 h 0.2 c -0.68,0 -1.559,0.24 -2.238,0.48 -6.436,2.838 -6.197,8.555 -4.198,14.231 1.999,5.917 1.999,8.795 0,13.992 -2.478,6.156 -1.359,13.512 8.875,11.873 -1.32,1.879 -5.757,7.355 -7.316,8.515 -1.559,0.959 -3.558,3.557 -3.358,5.956 0,0 -0.44,3.758 5.117,4.957 5.557,1.439 7.596,-2.359 7.596,-2.359 1.758,-1.918 6.436,-6.875 6.875,-7.355 1.32,4.517 1.8,10.673 10.474,13.272 8.435,2.358 14.231,0.72 17.35,-0.72 1.319,-0.68 4.677,-2.119 6.675,-2.119 2.679,-0.24 4.678,0.48 7.356,1.44 4.437,1.399 7.795,0.68 12.912,-3.358 -0.68,2.158 1.08,7.835 6.436,10.673 6.916,3.318 13.592,0 16.27,-6.396 1.32,-3.078 2,-6.636 2.439,-9.714 0.64,-6.636 -1.999,-24.185 -13.792,-22.307 z"
       fill="#e6c1c7"
       fill-rule="evenodd"
       id="path4085" />
    <path
       d="m 181.01,451.406 c 0,0 -1.759,0.44 -5.316,-1.439 -3.318,-1.679 -6.876,-8.075 -10.874,-9.274 h -0.24 c 4.238,-0.96 6.676,-3.558 7.796,-5.237 0.2,2.399 1.079,4.997 3.078,8.315 1.998,3.118 3.797,5.717 5.756,7.635 z m -3.518,14.712 c -8.035,0.959 -10.713,-2.36 -12.752,-6.437 1.12,4.318 1.12,8.355 4.477,8.835 3.119,0.44 5.797,-0.96 8.475,-2.399 h -0.2 z m -31.82,-35.059 c 0,1.919 0.68,3.797 0.24,5.676 -0.48,2.119 -1.16,3.998 -1.16,3.998 1.8,-1.16 4.078,-1.879 6.756,-1.64 h 0.2 c -1.32,-0.719 -2.438,-1.398 -2.878,-2.358 -0.68,-1.159 -1.8,-3.518 -2.918,-5.676 z m 40.695,-2.599 c 0,-3.358 2.878,-5.956 5.077,-8.115 -1.32,1.44 -5.557,4.518 -6.876,3.838 h -0.24 c 0.68,1.4 1.36,3.078 2.04,4.717 v -0.44 z m -21.987,-2.678 c 0.88,-0.92 2,-2.119 3.079,-3.558 -5.077,-0.72 -7.956,-3.798 -10.874,-7.395 3.118,4.077 4.238,9.794 7.795,10.953 z"
       fill="#bb5a74"
       fill-rule="evenodd"
       id="path4087" />
    <path
       d="m 193.523,397.56 c -5.117,1.918 -8.475,7.874 -9.834,10.713 0.68,-0.2 1.359,-0.68 2.038,-1.16 3.558,-2.158 6.237,-5.237 7.796,-9.554 z"
       fill="#dda6b0"
       fill-rule="evenodd"
       id="path4089" />
    <path
       d="m 200.159,464.478 c -1.76,-0.24 -6.197,0.48 -8.635,0.96 l -0.24,-0.24 c 1.799,0.72 3.558,1.2 6.436,0.24 0.68,-0.24 1.56,-0.48 2.439,-0.96 z"
       fill="#bb5a74"
       fill-rule="evenodd"
       id="path4091" />
    <path
       d="m 191.444,438.854 c 2.039,5.677 18.948,8.755 20.947,-19.228 -0.64,6.436 -8.914,27.983 -20.947,19.228 z m -39.336,-1.199 c 2.238,2.878 15.39,3.558 18.948,-2.119 0,-3.078 0.68,-7.116 2,-8.315 -3.119,3.118 -1.56,3.558 -5.118,7.116 -3.558,3.558 -11.593,5.476 -15.83,3.318 z m 55.806,41.255 c 1.56,4.037 8.715,7.795 14.031,4.957 5.117,-2.599 9.795,-11.393 7.156,-26.344 0.2,5.956 0.44,24.465 -11.153,25.864 -6.676,0.48 -10.034,-4.477 -10.034,-4.477 z m -25.544,-3.718 c 2.918,-1.16 3.997,-1.639 6.915,-0.2 2.879,1.4 7.116,2.599 9.994,1.64 2.878,-0.96 7.556,-5.677 9.754,-7.117 -3.078,0.72 -7.555,4.997 -10.633,5.477 -3.118,0.68 -7.995,-2.398 -10.674,-2.159 -2.438,0 -1.359,-0.919 -8.235,2.359 -6.676,3.078 -16.67,2.838 -19.788,1.2 3.358,1.638 10.034,4.477 22.666,-1.2 z"
       fill="#dda6b0"
       fill-rule="evenodd"
       id="path4093" />
    <path
       d="m 178.572,446.25 c 2.039,4.037 11.593,11.593 24.265,8.035 12.872,-3.558 18.189,-14.711 20.188,-26.344 -1.999,7.595 -7.316,21.866 -21.307,25.184 -14.032,3.558 -23.146,-6.875 -23.146,-6.875 z m -42.295,8.035 c 2.24,0.92 4.038,1.639 6.916,0 2.918,-1.92 6.037,-5.917 11.593,-4.957 5.557,1.159 8.235,4.717 9.355,7.755 1.119,3.318 5.116,7.356 9.794,7.555 -3.758,-2.118 -5.997,-3.997 -10.234,-12.032 -4.438,-8.035 -13.152,-6.596 -16.47,-3.758 -3.598,2.838 -6.037,7.076 -10.954,5.437 z m 5.157,-13.792 c -2.638,3.518 -2.638,5.876 -4.437,8.475 1.799,-0.44 2.878,-3.518 4.197,-5.637 1.32,-1.919 1.76,-2.158 2.879,-4.037 1.079,-2.119 1.079,-3.318 0.88,-6.157 -0.24,-2.598 -1.12,-3.757 -2.64,-5.676 1.08,2.838 2.839,8.275 -0.879,13.032 z m -0.639,-26.064 c 3.997,-0.72 7.795,0.92 10.233,2.838 1.8,1.16 2.879,3.038 3.998,4.957 0.92,1.64 1.12,4.238 3.118,4.957 1.36,0.44 5.117,-0.24 5.557,-1.679 -1.08,-0.48 -1.76,-0.92 -2.439,-1.639 -1.12,-1.439 -1.12,-3.078 -1.999,-4.477 0.24,1.639 0.68,2.838 -1.119,1.639 -1.759,-0.96 -2.678,-3.078 -3.997,-4.477 -3.358,-3.798 -10.034,-4.278 -14.272,-2.359 z m 40.215,36.977 h 0.2 c -1.759,-1.918 -3.518,-4.037 -5.077,-6.676 -1.759,0 -3.757,0 -6.676,-0.48 2.239,2.16 4.238,4.758 6.237,5.717 3.557,1.88 5.316,1.44 5.316,1.44 z"
       fill="#dda6b0"
       fill-rule="evenodd"
       id="path4095" />
    <path
       d="m 213.51,394.041 c -3.118,0.48 -5.796,2.159 -6.675,9.714 -0.68,7.356 0,9.035 -0.48,13.752 -0.44,4.757 -2.878,8.515 -5.557,10.913 -2.718,2.359 -1.599,3.318 -1.119,3.758 0,-1.16 1.759,-2.598 3.558,-4.237 2.238,-2.159 4.717,-5.917 5.357,-14.472 0.48,-8.514 -1.32,-18.708 4.917,-19.428 z m 1.32,28.143 c 0,6.196 -3.118,18.589 -10.514,21.467 4.278,0.2 12.073,-7.635 10.514,-21.467 z m -70.557,-22.786 c -3.718,0 -9.035,2.638 -6.357,9.274 -0.44,-3.078 0.88,-8.075 6.357,-9.274 z m -9.035,29.302 c -2.239,-5.277 -1.759,-8.834 2.678,-10.753 4.438,-2.159 10.194,-0.96 12.873,2.398 2.678,3.318 2.678,4.038 3.757,5.957 1.12,1.918 1.8,4.077 6.436,3.118 -4.877,1.639 -6.636,0 -8.434,-3.598 -1.56,-3.558 -6.437,-8.835 -13.312,-6.196 -3.118,1.199 -4.877,3.358 -3.998,9.074 z m 33.34,-5.796 c 2.438,-3.278 7.076,-4.717 12.152,-1.16 -2.198,-0.959 -7.475,-2.358 -12.152,1.16 z m -25.345,20.667 c 3.118,-2.838 5.797,-3.318 7.995,-3.078 2.439,0.24 4.438,1.679 9.754,1.679 5.357,0 5.357,0.68 6.876,2.558 -1.08,-1.159 -1.08,-1.878 -5.956,-1.639 -4.877,0.48 -9.314,-0.919 -11.113,-1.399 -1.76,-0.48 -5.997,0 -7.556,1.88 z m 11.553,9.075 c 3.998,0.68 7.556,4.477 9.315,9.914 -1.08,-5.677 -3.079,-9.235 -7.516,-11.114 -4.437,-1.918 -9.554,1.2 -13.352,5.437 2.918,-1.879 6.236,-4.717 11.553,-4.237 z m 63.202,7.315 c -4.437,-2.118 -13.392,4.478 -15.43,4.677 4.477,-2.318 11.192,-8.954 15.43,-4.917 z m -43.174,9.235 c 2.479,-0.68 6.236,-4.718 9.794,-4.718 3.518,0.24 5.757,2.16 7.955,2.36 -2.878,0.239 -5.756,-0.92 -7.955,-1.16 -2.239,-0.24 -7.116,3.078 -9.794,3.518 z m 44.453,-11.353 c 2.678,2.158 4.038,6.635 3.118,10.913 -0.44,3.318 -3.118,7.595 -0.44,8.035 -0.879,-0.92 1.36,-4.477 1.56,-8.035 0.24,-3.318 0.879,-7.595 -4.238,-10.913 z"
       fill="#fcf8f8"
       fill-rule="evenodd"
       id="path4097" />
    <path
       d="m 190.964,420.865 c 2.918,-1.919 6.276,-4.277 8.275,-6.916 1.32,-1.399 2.239,-3.558 3.118,-5.197 0.88,-1.439 2,-2.878 2.439,-4.317 -0.44,2.638 -0.44,5.237 -0.2,8.115 0,2.838 -0.44,8.555 -2.439,10.673 0.64,-1.399 2,-5.196 -0.68,-7.115 -2.677,-1.919 -5.596,1.919 -8.034,2.598 z"
       fill="#dda6b0"
       fill-rule="evenodd"
       id="path4099" />
    <path
       d="m 187.446,456.403 c 8.036,3.838 17.15,3.598 24.945,-3.837 -1.559,1.199 -9.354,7.435 -24.945,3.837 z"
       fill="#fcf8f8"
       fill-rule="evenodd"
       id="path4101" />
    <path
       d="m 145.152,469.435 c 1.36,-1.159 2.718,-3.557 3.358,-5.196 0.68,-1.68 -0.2,-3.838 1.36,-4.078 1.998,-0.24 1.558,2.639 1.118,4.078 -0.879,2.358 -3.797,3.797 -5.596,5.196 z"
       fill="#dda6b0"
       fill-rule="evenodd"
       id="path4103" />
    <path
       d="m 154.107,421.225 c 1.559,1.919 1.359,5.516 3.997,6.476 1.8,0.48 4.677,0.24 5.757,-1.68 -1.32,-0.719 -2.199,-1.438 -2.879,-3.117 0.92,4.077 -5.756,1.439 -5.956,-0.72 z m 10.473,17.629 c 1.8,0 4.238,-1.44 5.597,-2.598 1.32,-1.4 1.32,-3.518 1.519,-5.197 -0.44,0.72 -0.64,1.679 -1.08,2.358 -0.919,2.599 -3.557,4.478 -5.796,5.637 z m 9.754,9.714 c 2.479,2.159 4.917,3.118 5.797,2.639 1.08,-0.24 -2.239,-4.078 -2.239,-4.078 0.24,1.44 -0.88,2.878 -3.558,1.44 z m -25.344,1.439 c 3.358,-1.199 12.672,0 15.11,8.555 -0.44,-3.798 -2.878,-9.274 -7.555,-9.994 -4.437,-0.96 -5.077,0 -7.555,1.44 z m 50.05,-7.595 c 3.597,-0.2 9.833,-2.838 11.832,-13.112 -1.319,4.077 -3.758,10.274 -11.833,13.112 z"
       fill="#d18293"
       fill-rule="evenodd"
       id="path4105" />
    <path
       d="m 199.759,412.51 c 2.678,-2.838 4.677,-2.159 5.317,0.72 0.44,3.038 -0.2,-8.795 -0.2,-8.795 z m -59.644,-13.752 c 0,-2.158 0.68,-3.837 2.638,-3.597 1.56,0 2.439,1.439 3.279,2.878 -1.72,-0.72 -3.279,0.48 -5.037,0.24 z m 73.395,-5.956 c 4.478,-4.038 7.596,0.24 7.596,4.917 -1.32,-2.119 -3.798,-3.758 -5.557,-4.917 z m 5.997,50.489 c 0.24,0.96 0.44,2.159 0.88,3.118 -0.88,-0.72 -1.96,-0.72 -2.879,0 z m -18.309,33.979 c 0.92,2.12 5.117,4.718 7.116,4.718 -1.32,-1.16 -3.558,-5.437 -2.879,-7.835 -0.68,0.72 -1.559,1.439 -2.438,1.918 z"
       fill="#bb5a74"
       fill-rule="evenodd"
       id="path4107" />
    <path
       d="m 228.701,419.786 c 2.679,4.077 9.994,22.146 9.115,38.296 -0.44,8.795 -4.437,20.188 -10.234,24.226 1.999,-2.599 5.996,-8.315 3.798,-22.547 0.88,2.12 3.558,-5.956 1.759,-18.069 -1.76,-11.912 -7.116,-14.271 -7.995,-9.034 -0.44,1.879 -0.92,1.639 -0.92,1.639 0,0 1.36,-7.116 1.56,-9.035 0.239,-1.879 2.478,-3.078 2.917,-5.476 z"
       fill="#dda6b0"
       fill-rule="evenodd"
       id="path4109" />
    <path
       d="m 223.345,435.776 c -0.68,1.919 -1.12,3.798 -2.04,5.477 -0.439,0.919 -0.919,1.159 -0.679,2.118 0,0.72 0.68,2.599 1.12,3.318 1.159,-0.48 3.198,0.96 3.877,1.64 -1.159,-0.92 -2.518,-3.279 -2.718,-4.958 0,-1.639 1.36,-4.037 2.918,-2.358 -0.44,-1.68 -2.039,-2.839 -2.478,-4.518 z m -77.873,36.338 c 2.238,0.68 4.917,0.68 7.116,0 -1.08,-1.44 -1.32,-4.517 -1.32,-6.196 -1.319,0.48 -2.438,2.158 -3.558,2.878 z"
       fill="#dda6b0"
       fill-rule="evenodd"
       id="path4111" />
    <path
       d="m 146.351,470.635 c 1.32,-1.44 3.078,-4.078 4.637,-4.557 0.64,1.679 0.88,3.357 1.28,4.797 -0.84,-1.2 -2.159,-3.358 -3.718,-1.68 z"
       fill="#bb5a74"
       fill-rule="evenodd"
       id="path4113" />
    <path
       d="m 159.224,477.51 c 0.919,1.2 3.118,1.2 4.477,1.44 1.759,0.48 3.797,0.72 5.796,0.72 2.679,0 5.317,0.24 7.995,-0.72 3.558,-1.2 9.355,-4.797 12.913,-2.159 -0.64,0.72 -1.08,1.679 -1.76,2.399 -1.119,1.399 -2.438,2.598 -3.797,3.318 -2.239,1.439 -6.436,3.358 -8.915,3.797 1.12,-0.68 3.118,-2.358 2.919,-3.318 -0.44,-0.96 -3.558,-0.72 -6.037,-0.96 -1.759,-0.239 -11.553,-1.918 -13.591,-3.797 z m 36.058,6.876 c 3.358,4.758 13.791,7.596 19.108,5.717 5.317,-1.679 5.757,-3.318 5.757,-3.318 -1.76,0.24 -8.195,0 -9.954,-2.638 0.88,2.158 -2,7.395 -14.911,0.24 z m -4.917,-4.716 c 1.119,-0.96 0.68,-1.68 2.238,-1.68 0.68,0 1.8,0.48 2.479,0.48 1.759,0.24 3.558,0.48 5.117,-0.24 0,0.48 0.24,1.2 0.44,1.919 -2.44,-1.44 -7.356,-0.24 -6.477,3.598 -0.88,-0.24 -4.477,-2.878 -3.118,-4.078 z m -60.444,-63.562 c 0.44,2.159 1.32,4.037 1.32,6.196 0,1.879 0,3.998 0.679,5.916 1.08,4.038 2.878,7.596 2.199,11.833 -0.64,3.798 -3.118,7.596 -1.32,11.393 1.56,3.318 5.757,5.437 9.075,4.758 -2.199,2.358 -4.437,5.676 -7.076,7.555 0.64,-1.64 -0.44,-2.359 -1.119,-3.518 -1.12,-1.44 -1.999,-2.878 -2.678,-4.757 -1.76,-4.997 -1.08,-8.555 0.24,-13.272 1.319,-4.997 -0.24,-9.035 -1.32,-13.512 -0.92,-3.798 1.32,-7.835 0.2,-11.393 z"
       fill="#dda6b0"
       fill-rule="evenodd"
       id="path4115" />
    <path
       d="m 136.517,456.403 c 1.6,1.2 1.8,3.798 1.6,5.437 0.439,-1.879 2.678,-3.278 3.757,-5.197 -0.88,-0.48 -2.439,-0.48 -3.318,-0.24 z"
       fill="#bb5a74"
       fill-rule="evenodd"
       id="path4117" />
    <path
       d="m 135.238,406.354 c 0.44,1.639 0.44,3.318 1.08,4.957 0.679,1.439 1.119,3.078 2.438,4.037 -1.999,0.48 -4.198,1.68 -5.996,3.078 1.119,-1.639 1.798,-3.557 1.798,-5.676 -0.24,-2.599 -1.559,-7.835 0.44,-9.994 z"
       fill="#dda6b0"
       fill-rule="evenodd"
       id="path4119" />
    <path
       d="m 134.798,405.594 c -0.44,-2.119 0.88,-4.277 2.239,-5.476 0.44,-0.68 1.559,-0.92 1.999,-1.64 0.44,-0.72 0.44,-1.918 0.68,-2.878 2.438,-4.997 6.875,0.24 8.874,2.639 -1.32,-2.159 -1.759,-4.518 -3.998,-5.957 -2.238,-1.679 -4.677,-1.439 -6.676,0.24 -4.437,4.038 -4.917,15.95 -2.438,17.35 z m 24.026,-0.48 c 3.797,3.318 14.431,8.995 24.425,2.839 0.44,-0.68 3.118,-5.677 4.437,-6.636 -3.997,2.398 -3.997,4.757 -8.874,6.196 -10.874,2.838 -14.192,-0.48 -17.51,-1.44 z m 71.436,-7.794 c 0.68,5.956 1.32,16.15 -4.037,23.505 0.24,-1.4 1.599,-9.714 -1.12,-15.87 1.36,3.557 2.919,4.237 3.798,3.078 0.92,-1.44 2.039,-7.596 1.36,-10.714 z"
       fill="#dda6b0"
       fill-rule="evenodd"
       id="path4121" />
    <path
       d="m 186.567,405.154 c 1.799,-3.278 3.798,-5.196 4.877,-5.436 z m -19.588,-3.318 c 6.036,0.96 14.75,0.96 20.307,-2.838 -2.678,1.2 -16.51,4.238 -20.307,2.838 z m -24.945,-18.508 c -4.397,-0.24 -11.273,0.24 -11.513,16.55 1.12,-6.596 3.358,-15.83 11.513,-16.55 z m -13.512,63.082 c -2.878,-11.394 -1.759,-22.107 -0.88,-26.624 -0.44,3.577 -0.44,18.548 0.88,26.623 z m 61.203,-9.915 c -0.24,-1.399 -1.799,-4.237 -2.039,-7.075 0,-2.639 0.68,-4.997 3.598,-6.916 -1.32,1.679 -2.678,4.517 -2.678,7.116 0,2.638 0.68,5.476 1.119,6.875 z m 41.575,21.747 c -0.64,-3.278 -2.239,-7.555 -4.917,-10.154 2.238,0.72 5.357,4.997 4.917,10.154 z"
       fill="#fcf8f8"
       fill-rule="evenodd"
       id="path4123" />
    <path
       d="m 173.695,427.5 c -2,4.518 -2.679,9.035 1.799,16.391 4.677,7.595 8.674,11.633 18.908,12.592 10.034,0.68 16.71,-3.558 22.906,-9.994"
       fill="none"
       stroke="#1a171b"
       stroke-width="1.359"
       stroke-linecap="round"
       stroke-linejoin="round"
       stroke-miterlimit="10"
       id="path4125" />
    <path
       d="m 142.074,456.204 c 4.037,-4.718 8.275,-7.836 13.592,-6.397 12.712,3.318 7.115,17.79 13.591,18.749 6.437,0.96 10.914,-5.916 16.03,-4.997 5.357,0.72 6.917,3.558 12.473,1.919 5.557,-1.44 12.912,-10.194 18.909,-8.075 5.996,2.358 5.117,9.714 3.797,14.231 -1.359,4.517 -1.119,6.396 0.88,6.196"
       fill="none"
       stroke="#1a171b"
       stroke-width="1.359"
       stroke-linecap="round"
       stroke-linejoin="round"
       stroke-miterlimit="10"
       id="path4127" />
    <path
       d="m 211.112,466.677 c 3.318,1.879 -3.558,4.957 -5.157,7.516 M 149.19,459.561 c 3.438,-0.72 2.078,3.558 2.078,6.157 m 21.108,-30.142 c -1.08,1.879 -3.998,4.997 -9.515,5.477 -5.556,0.2 -12.432,-1.44 -13.991,-4.278 -1.56,-2.878 -5.797,-12.392 -7.356,-10.473"
       fill="none"
       stroke="#1a171b"
       stroke-width="1.359"
       stroke-linecap="round"
       stroke-linejoin="round"
       stroke-miterlimit="10"
       id="path4129" />
    <path
       d="m 151.428,439.094 c -6.636,-0.48 -9.994,4.317 -12.192,8.115 -2.239,3.558 -3.798,2.878 -3.798,1.919 m 29.342,-8.355 c 4.038,1.2 7.596,7.595 10.953,9.234 3.598,1.88 5.357,1.44 5.357,1.44 m 17.99,-17.55 c -3.359,-2.598 0,-5.437 1.998,-8.075 3.798,-5.677 4.238,-9.035 3.798,-13.552 -0.44,-4.717 0.68,-10.913 1.319,-12.832 m -41.415,60.283 c 2.039,4.038 4.717,7.356 12.712,6.436"
       fill="none"
       stroke="#1a171b"
       stroke-width="1.359"
       stroke-linecap="round"
       stroke-linejoin="round"
       stroke-miterlimit="10"
       id="path4131" />
    <path
       d="m 145.712,431.099 c 0,1.919 0.68,3.797 0.24,5.676 a 29.25,29.25 0 0 1 -1.16,3.998 m 39.816,-16.59 c 1.36,0.68 5.557,-2.359 6.876,-3.798 -2.199,2.119 -5.077,4.717 -5.077,7.995 m -5.357,23.066 c 0,0 -1.759,0.44 -5.317,-1.439 -3.317,-1.679 -6.875,-8.075 -10.873,-9.274 h -0.24 c 4.238,-0.96 6.676,-3.558 7.796,-5.237 0,0 0,0 0,0 0.2,2.399 1.079,4.997 3.078,8.315 1.998,3.118 3.797,5.717 5.756,7.635 z m -3.518,14.711 c -8.035,0.96 -10.713,-2.358 -12.752,-6.436 0,0 0,0 0,0 1.12,4.318 1.12,8.355 4.477,8.835 3.119,0.44 5.797,-0.96 8.475,-2.399 z"
       fill="none"
       stroke="#1a171b"
       stroke-width="1.359"
       stroke-linecap="round"
       stroke-linejoin="round"
       stroke-miterlimit="10"
       id="path4133" />
    <path
       d="m 145.712,431.099 c 0,1.919 0.68,3.797 0.24,5.676 -0.48,2.119 -1.16,3.998 -1.16,3.998 0,0 0,0 0,0 1.8,-1.16 4.078,-1.879 6.756,-1.64 h 0.2 c -1.32,-0.719 -2.438,-1.398 -2.878,-2.358 -0.68,-1.159 -1.8,-3.518 -2.918,-5.676 z m 54.487,33.419 c -1.76,-0.24 -6.197,0.48 -8.635,0.96 l -0.24,-0.24 c 1.799,0.72 3.558,1.2 6.436,0.24 0.68,-0.24 1.56,-0.48 2.439,-0.96 M 186.407,428.5 c 0,-3.358 2.878,-5.956 5.077,-8.115 -1.32,1.44 -5.557,4.517 -6.876,3.838 h -0.24 c 0.68,1.399 1.36,3.078 2.039,4.717 z"
       fill="none"
       stroke="#1a171b"
       stroke-width="1.359"
       stroke-linecap="round"
       stroke-linejoin="round"
       stroke-miterlimit="10"
       id="path4135" />
    <path
       d="m 215.47,413.75 c -0.44,-0.48 -1.52,-0.48 -2.2,2.398 -0.439,2.838 1.32,9.674 -3.357,19.148 -3.318,6.636 -7.756,8.755 -12.872,8.315 -5.117,-0.48 -8.235,-3.318 -9.315,-9.234 -1.12,-5.717 -3.558,-13.512 -8.675,-15.39 -9.993,-3.799 -12.432,7.075 -16.91,8.034 -4.437,1.2 -5.116,0.48 -7.755,-4.957 -2.438,-4.997 -9.354,-7.355 -14.47,-6.636"
       fill="none"
       stroke="#1a171b"
       stroke-width="1.359"
       stroke-linecap="round"
       stroke-linejoin="round"
       stroke-miterlimit="10"
       id="path4137" />
    <path
       d="m 207.075,397.04 c -3.998,10.273 -4.438,14.79 -15.591,23.345 m -38.457,-9.275 c 1.36,0.96 2.479,2.12 3.598,3.759 m 7.795,10.953 c 0.88,-0.92 2,-2.119 3.078,-3.558 -5.076,-0.72 -7.955,-3.798 -10.873,-7.395 3.118,4.077 4.238,9.794 7.795,10.953 m 5.077,18.468 c 2.679,0.72 6.236,0.24 6.236,0.24 m 17.83,-46.931 c -5.117,1.919 -8.475,7.875 -9.834,10.714 0.68,-0.2 1.359,-0.68 2.038,-1.16 3.558,-2.158 6.237,-5.237 7.796,-9.554"
       fill="none"
       stroke="#1a171b"
       stroke-width="1.359"
       stroke-linecap="round"
       stroke-linejoin="round"
       stroke-miterlimit="10"
       id="path4139" />
    <path
       d="m 215.35,414.669 c 0.44,-0.92 0,-2.599 -0.92,-3.078 -1.36,0.959 -0.88,4.997 0.92,5.436 m 5.796,59.324 c -0.48,0.96 -0.48,1.92 -0.48,2.879 m -9.594,-11.673 c 0.48,-0.44 0.92,-0.64 1.36,-1.12 m -62.922,-6.716 c 0.2,-0.2 0.2,-0.64 0.4,-0.88 m 23.185,-31.181 c 0.64,0 1.08,0.28 1.52,0.76 -0.44,1 -1.52,1.24 -2,0.52 m -19.828,-17.11 c 0.24,-0.48 0.92,-0.959 1.36,-1.199 0.24,0.96 -0.24,1.919 -0.44,2.599 0.68,-0.48 1.319,-1.4 2.238,-1.4 0.2,0.92 -0.44,2.12 -0.68,3.039 m -13.191,11.672 c 0,-0.72 0,-1.439 0.48,-1.918 m -6.876,23.985 c -1.12,3.118 2.398,1.919 1.08,-0.72"
       fill="none"
       stroke="#e6c1c7"
       stroke-width="1.359"
       stroke-linecap="round"
       stroke-linejoin="round"
       stroke-miterlimit="10"
       id="path4141" />
    <path
       d="m 189.565,479.47 c 1.04,-1.68 1.44,-2.639 1.44,-2.639 M 158.384,396.32 c 3.798,6.236 4.038,5.756 7.595,7.435 m 63.162,14.232 c -0.44,0.96 -0.88,1.679 -1.32,2.398 -0.919,1.16 -1.598,2.359 -2.518,3.278 m -92.743,-2.798 c -0.66,-0.94 -1.56,-4.018 -2.239,-7.835 m 86.987,-21.587 c 2.239,-0.48 4.877,4.757 3.998,6.876 m 1.999,35.578 c 1.359,4.277 3.837,6.396 4.277,9.234 0.44,2.879 -1.32,3.079 -1.32,3.079 m -6.715,-3.278 c -0.24,1.199 1.28,3.278 1.28,3.278 m -19.589,31.34 c 0,2.16 4.917,4.558 7.595,4.798 m -68.678,-83.87 c -0.48,-3.278 3.318,-4.717 5.757,-0.919"
       fill="none"
       stroke="#1a171b"
       stroke-width="1.359"
       stroke-linecap="round"
       stroke-linejoin="round"
       stroke-miterlimit="10"
       id="path4143" />
    <path
       d="m 165.3,404.715 c 0.2,-0.68 0.2,-1.4 0,-2.079 -0.44,0.24 -1.12,0.44 -1.56,0.68 0.44,-2.12 -0.24,-2.12 -2.238,-1.16 0,-0.24 0,-0.48 -0.2,-0.72 -0.24,0 -0.68,0.24 -0.92,0.48 m 65.161,42.694 c 0.92,0.2 1.6,1.6 2.719,0.92 1.119,-0.92 -1.12,-2.119 -1.8,-2.359"
       fill="none"
       stroke="#e6c1c7"
       stroke-width="1.359"
       stroke-linecap="round"
       stroke-linejoin="round"
       stroke-miterlimit="10"
       id="path4145" />
    <path
       d="m 144.353,473.033 c 1.758,-1.919 6.436,-6.876 6.875,-7.355 1.32,4.517 1.8,10.673 10.474,13.272 8.435,2.358 14.231,0.72 17.35,-0.72 1.319,-0.68 4.677,-2.119 6.675,-2.119 2.679,-0.24 4.678,0.48 7.356,1.44 4.437,1.399 7.795,0.68 12.912,-3.358 -0.68,2.158 1.08,7.835 6.436,10.673 6.916,3.318 13.592,0 16.27,-6.396 1.32,-3.078 2,-6.636 2.439,-9.714 0.64,-6.636 -1.999,-24.185 -13.792,-22.307 1.08,-1.639 3.758,-4.717 6.197,-13.751 2.678,-12.792 3.597,-23.706 -0.88,-32.02 -4.437,-8.995 -11.793,-10.914 -15.59,-3.559 0,-0.24 0.24,-0.24 0.24,-0.44 -0.88,1.16 -3.319,1.16 -6.677,0.44 -2.878,-0.44 -5.556,-1.879 -5.796,-3.558 -1.56,6.437 -4.437,10.674 -9.115,13.552 -11.553,6.636 -18.908,3.758 -26.024,-1.439 -6.476,-4.997 -13.152,-9.954 -19.588,-7.116 -6.476,2.839 -5.117,10.434 -0.44,16.83 h 0.2 c -0.68,0 -1.559,0.24 -2.238,0.48 -6.437,2.838 -6.197,8.555 -4.198,14.231 1.999,5.917 1.999,8.795 0,13.992 -2.478,6.156 -1.359,13.512 8.875,11.873 -1.32,1.879 -5.757,7.355 -7.316,8.514 -1.559,0.96 -3.558,3.558 -3.358,5.957"
       fill="none"
       stroke="#1a171b"
       stroke-width="1.359"
       stroke-linecap="round"
       stroke-linejoin="round"
       stroke-miterlimit="10"
       id="path4147" />
    <path
       d="m 194.882,393.002 c -0.48,1.639 2.438,3.318 5.756,4.037 3.318,0.68 6.197,0.68 6.876,-0.72 0.64,-1.678 -1.999,-3.557 -5.756,-4.037 -3.798,-0.48 -6.436,-0.96 -6.876,0.72 z"
       fill="#f7eced"
       fill-rule="evenodd"
       id="path4149" />
    <path
       d="m 196.321,393.801 c 0.24,0.92 1.36,0.24 2.039,0.92 0.44,0.24 0.44,0.72 1.359,0.72 0.2,0 0.44,-0.24 0.64,-0.24 0.24,0.24 0.48,0.48 0.68,0.48 0.919,0.24 1.798,0.24 2.718,0.24 0.44,0.199 1.758,0.199 1.559,-0.72 -0.24,-1.16 -1.36,-0.48 -2.04,-0.68 -0.2,0 -0.639,-0.24 -1.119,-0.24 -0.44,-0.24 -0.68,0 -1.319,0 -0.24,-0.24 -0.48,-0.48 -0.92,-0.72 -0.439,-0.24 -0.679,0 -1.118,0.24 -0.44,0 -0.88,-0.24 -1.32,-0.24 -0.48,0 -0.68,0.24 -0.92,0.24 z"
       fill="#bb5a74"
       fill-rule="evenodd"
       id="path4151" />
    <path
       d="m 194.922,393.042 c -0.48,1.639 2.438,3.318 5.756,4.037 3.318,0.68 6.197,0.68 6.876,-0.72 0.64,-1.678 -1.999,-3.557 -5.756,-4.037 -3.798,-0.48 -6.436,-0.96 -6.876,0.72"
       fill="none"
       stroke="#1a171b"
       stroke-width="1.359"
       stroke-linecap="round"
       stroke-linejoin="round"
       stroke-miterlimit="10"
       id="path4153" />
    <path
       d="m 196.321,393.801 c 0.24,0.92 1.36,0.24 2.039,0.92 0.44,0.24 0.44,0.72 1.359,0.72 0.2,0 0.44,-0.24 0.64,-0.24 0.24,0.24 0.48,0.48 0.68,0.48 0.919,0.24 1.798,0.24 2.718,0.24 0.44,0.199 1.758,0.199 1.559,-0.72 -0.24,-1.16 -1.36,-0.48 -2.04,-0.68 -0.2,0 -0.639,-0.24 -1.119,-0.24 -0.44,-0.24 -0.68,0 -1.319,0 -0.24,-0.24 -0.48,-0.48 -0.92,-0.72 -0.439,-0.24 -0.679,0 -1.118,0.24 -0.44,0 -0.88,-0.24 -1.32,-0.24 -0.48,0 -0.68,0.24 -0.92,0.24"
       fill="none"
       stroke="#1a171b"
       stroke-width="0.8"
       stroke-linecap="round"
       stroke-linejoin="round"
       stroke-miterlimit="10"
       id="path4155" />
  </g>
  <g
     id="g4478"
     transform="translate(-86.070626,-176.58925)"
     style="opacity:0.3">
    <path
       d="m 441.412,450.727 c 0.2,1.559 0.6,3.318 0.4,4.877 -0.2,2.638 -0.84,2.199 -2.918,1.759 2.079,-0.44 2.079,-1.959 2.319,-4.198 z"
       fill="#f7c2b0"
       fill-rule="evenodd"
       id="path3841" />
    <path
       d="m 442.252,459.202 c 1.04,-2 0.64,-9.555 -1.44,-11.553 1.04,-1.32 0.2,-9.115 -2.718,-9.994 0.84,-0.64 1.24,-6.876 -1.439,-8.875 0.6,-2.638 -0.64,-10.434 -2.518,-10.633 1.679,-1.8 0,-9.315 -1.04,-11.753 0.84,-0.68 1.24,-7.556 -0.2,-8.235 1.24,-2 -0.4,-6.876 -1.039,-8.195 1.24,-1.56 0.84,-5.557 0,-8.675 1.24,0 2.479,-7.316 0.64,-9.554 1.839,-1.52 1.439,-9.754 -0.84,-10.194 1.44,-1.999 1.64,-8.435 -0.2,-10.434 1.04,-2.878 -3.557,-11.073 -6.236,-12.632 -2.718,-1.36 -4.797,-0.24 -5.836,-0.24 -2.279,-0.44 -4.158,-0.88 -7.716,1.12 -5.796,2.878 -6.635,8.434 -5.996,10.433 -1.28,0 -4.597,4.637 -2.918,6.636 -2.079,0 -4.597,3.558 -4.357,6.676 -2.08,0.88 -4.398,3.558 -3.958,5.996 -2.519,-0.68 -6.436,2.639 -7.915,4.198 -2.918,-2.199 -9.554,-0.2 -10.594,1.359 -2.079,-1.799 -9.554,-0.24 -9.994,1.32 -2.918,-2 -7.075,-1.76 -10.194,-0.24 -0.6,-2 -7.275,-3.319 -8.914,-1.52 -2.079,-3.118 -6.676,-5.796 -8.755,-4.917 -0.2,-1.759 -4.157,-5.317 -6.636,-5.516 -1.879,-2.439 -5.197,-5.997 -8.115,-5.557 -3.758,-4.677 -9.994,-2.878 -10.793,-2.439 -0.64,0.64 -1.88,2 -3.119,2.439 -2.718,0.88 -5.636,3.118 -6.875,7.076 -1.24,3.797 -2.719,9.114 0,13.791 -1.68,2.879 -1.48,12.872 1.039,14.871 -2.279,2.878 -0.84,8.635 0.2,11.753 -2.479,2.199 -2.479,11.073 -1.24,12.872 -2.918,2 -2.718,8.635 -1.239,12.193 -2.918,2.878 -2.718,9.314 -0.64,12.193 -2.278,3.118 -2.718,11.553 0.84,13.991 -0.84,5.996 2.719,13.312 5.837,15.55 -0.64,4.438 3.717,12.873 9.114,12.873 1.04,4.197 9.594,11.073 15.191,7.755 4.357,-2.878 3.958,-4.637 5.597,-7.315 0.64,-0.88 1.479,-1.8 2.318,-2.679 h -0.44 c -0.6,0.24 -1.239,-0.2 -1.239,-0.88 -0.2,-0.679 0,-1.318 0.64,-1.318 0.8,-0.44 1.639,-0.24 2.478,0.2 0.84,-1.56 1.88,-3.319 2.279,-5.997 0.84,-5.956 -8.115,-15.07 -12.472,-15.95 -1.88,-2.679 -4.158,-7.316 -6.437,-9.315 2.279,-4.237 0.4,-9.994 0.4,-9.994 0.44,-4.237 0.64,-6.875 -0.8,-10.673 1.84,-3.078 1.64,-8.435 0,-10.874 1.64,-2.438 2.48,-8.434 1.64,-11.313 0.64,-2.878 0.84,-5.316 -0.2,-8.634 2.079,-2.439 0,-7.796 -0.84,-9.795 1.48,2.24 4.158,7.116 9.994,7.356 4.997,4.437 6.436,3.318 10.594,3.758 1.24,2.878 9.354,3.118 11.433,1.319 1.24,1.999 8.115,3.798 10.194,0.68 1.04,0.68 7.275,2.438 9.354,-0.44 1.679,0.64 7.715,1.12 9.554,-2.439 2.079,0.64 7.276,0 9.794,-2.438 1.24,1.559 8.315,-3.798 8.315,-6.236 1.04,1.798 5.797,-4.878 6.636,-7.756 0,0 -1.439,6.196 0,6.876 -1.04,0.68 -0.6,8.875 1.48,9.994 -1.48,1.56 -0.24,9.554 1.638,10.194 -1.239,1.559 -1.439,9.994 1.28,12.432 -1.28,3.318 -0.84,8.675 0.8,9.555 -0.8,1.559 -0.4,8.634 2.318,8.634 -1.88,1.12 0,7.995 2.078,7.556 0,0 -0.839,1.319 -0.64,2.878 0.2,1.799 1.04,3.798 2.28,4.677 -1.04,0.44 -1.44,5.557 0.2,6.436 -1.24,-0.24 -2.68,5.077 -2.48,6.876 -1.039,0.68 -2.078,2.878 -1.238,5.557 -2.519,-0.24 -5.637,4.637 -4.997,7.315 h -0.2 c -1.68,-0.24 -5.837,1.999 -7.516,3.558 -3.917,-2.678 -5.197,-1.12 -12.232,-3.118 -7.076,-1.999 -13.112,-11.993 -27.064,-1.32 -11.833,8.875 -8.515,21.508 -6.236,26.625 -1.04,1.559 -2.678,6.636 -2.678,14.43 0,6.637 6.236,15.072 8.514,18.39 2.719,3.558 4.358,5.796 4.358,8.435 0,2.238 4.357,2.438 4.357,0 0,-3.078 0.84,-4.438 4.198,-9.515 3.517,-5.116 6.436,-12.672 6.236,-20.427 0,-4.238 -2.519,-5.117 -1.28,-8.435 1.88,-4.677 0.64,-6.436 -0.2,-9.314 2.08,-0.68 9.995,5.316 14.992,6.875 5.196,1.32 13.272,1.76 15.15,-1.119 1.68,0.68 12.073,-7.076 11.034,-11.313 3.318,1.12 9.994,-5.757 8.115,-10.873 3.118,0.44 8.115,-8.875 7.675,-13.992 1.48,0.24 3.318,-8.635 1.879,-11.073 z"
       fill="#faded4"
       fill-rule="evenodd"
       id="path3843" />
    <path
       d="m 304.975,454.285 c 1.48,1.559 2.319,4.677 3.358,6.636 1.24,2.238 1.879,4.437 1.04,6.875 2.078,0 5.436,6.197 6.875,7.956 -0.4,-1.96 0.4,-4.398 -0.2,-6.396 -0.839,-2.2 -2.918,-4.638 -4.157,-6.636 -1.08,-1.8 -2.319,-3.758 -3.158,-5.757 -0.84,-2.678 0,-5.756 -0.84,-7.995 z"
       fill="#f7c2b0"
       fill-rule="evenodd"
       id="path3845" />
    <path
       d="m 307.094,418.346 c 2.318,2 0,4.917 -0.4,7.116 -0.64,3.558 -0.44,3.558 -3.798,4.677 2.759,0.88 3.159,2.439 3.159,5.517 0,2.239 -0.4,5.796 -2.919,6.436 4.158,-1.959 1.44,4.238 1.44,5.357 -0.2,3.078 2.118,4.197 -0.6,7.515 1.679,-0.64 2.918,-0.44 4.597,-0.44 -1.28,-3.997 -2.079,-7.755 -1.679,-11.952 0.64,-4.238 4.397,-21.747 4.797,-26.224 z"
       fill="#f7c2b0"
       fill-rule="evenodd"
       id="path3847" />
    <path
       d="m 303.776,374.133 c 0.64,2.439 2.318,2.239 3.758,3.358 1.039,0.64 2.278,2.199 3.118,3.078 2.878,3.118 2.878,7.996 2.478,12.193 -0.6,4.877 -1.439,9.114 -1.239,13.991 0.2,4.878 -0.2,9.515 -1.879,14.392 -0.2,-2.439 -4.157,-3.078 -5.996,-3.078 2.878,-1.12 3.717,-0.88 4.557,-3.558 0.4,-1.56 0.4,-7.316 0.2,-8.875 -0.4,-1.999 -1.04,-1.559 -2.918,-0.88 4.797,-2.198 4.157,-14.87 -1.24,-10.873 1.48,-2.198 4.558,-2.438 5.597,-5.077 0.44,-0.92 0.44,-3.118 0,-3.997 -0.8,-1.56 -1.44,-0.88 -2.878,-1.12 2.278,-3.118 -2.279,-3.997 -1.88,-7.115 z"
       fill="#f7c2b0"
       fill-rule="evenodd"
       id="path3849" />
    <path
       d="m 319.366,390.164 c -3.517,-0.88 -3.717,6.436 -3.717,8.874 0.2,1.999 0.4,3.358 -0.24,5.357 -0.6,1.759 -1.24,3.318 -1.839,5.077 -1.08,-4.877 -0.84,-9.994 -0.64,-14.871 0.2,-2.439 0.84,-4.677 1.04,-6.876 0.2,-1.559 -0.64,-3.118 0,-4.477 z m 99.78,97.181 c -2.079,0.68 -4.158,1.319 -6.236,2.238 -2.279,1.08 -4.398,0.88 -6.876,1.32 -1.879,0.2 -3.758,0.2 -5.637,0.2 -1.879,0 -2.478,-0.88 -3.558,-2.44 1.48,1.8 7.116,0.68 8.555,-1.079 1.88,3.318 7.516,0.44 8.755,-1.998 2.079,1.319 2.718,-1.36 4.157,-2.239 1.28,-0.88 4.398,-1.759 3.758,-3.758 3.158,0.88 4.597,-4.677 3.158,-6.915 3.318,-1.76 3.958,-4.438 3.518,-8.435 2.079,-0.88 2.918,-7.116 1.04,-8.435 1.479,-2.239 0,-5.117 0.2,-7.556 l 2.318,-0.24 0.6,16.91 -3.318,9.554 -2.519,5.317 z"
       fill="#f7c2b0"
       fill-rule="evenodd"
       id="path3851" />
    <path
       d="m 410.831,382.368 c 1.679,-1.12 5.597,-4.437 7.675,-1.999 1.68,1.76 1.24,6.437 -0.8,7.556 2.04,0.88 2.04,3.558 2.28,5.517 0.2,1.998 0.799,4.237 -0.84,5.556 1.44,-0.2 2.279,9.115 1.04,10.434 1.638,-0.44 2.078,4.677 2.078,5.996 0,1.999 -0.2,3.998 -1.04,5.757 2.48,0.88 2.28,7.995 1.24,9.754 0.6,-1.76 2.478,2.918 2.678,3.558 0.44,1.559 0.84,3.797 -0.2,5.316 2.28,-0.879 4.558,5.797 3.318,7.556 2.679,2.239 3.518,5.317 2.679,8.635 3.318,-1.32 1.279,-6.636 1.04,-9.515 -0.2,-4.677 -1.84,-9.554 -3.079,-13.991 -2.918,-10.874 -4.557,-21.747 -5.397,-33.06 -0.44,-4.877 -1.039,-10.394 -0.2,-15.31 0.2,-2.44 0.2,-4.638 0.6,-7.077 0.44,-2.238 1.44,-4.237 1.68,-6.436 0.199,-2.678 0.199,-5.756 -0.24,-8.195 -0.2,-1.359 -0.6,-4.677 -2.04,-4.917 1.44,4.238 -1.878,7.356 -3.318,10.434 -1.239,2.439 -2.718,8.675 -5.836,8.875 0,0.88 -0.8,2.238 -1.24,3.118 z"
       fill="#f7c2b0"
       fill-rule="evenodd"
       id="path3853" />
    <path
       d="m 338.515,480.909 c -0.6,0 -0.84,0.68 -0.6,1.319 0,0.68 0.6,1.12 1.24,0.92 0.4,0 0.839,0.2 1.678,1.079 1.44,1.119 3.318,2.878 6.237,1.798 2.478,-0.879 4.157,-1.559 4.997,-2.238 0,0 1.439,-0.88 1.639,-1.32 0.2,-0.679 0.2,-1.319 -0.4,-1.558 -0.84,-0.44 -1.48,0 -2.279,0.44 -0.84,0.679 -2.318,1.558 -4.597,2.438 -1.879,0.44 -2.918,-0.44 -4.157,-1.56 -1.04,-0.879 -2.28,-1.998 -3.758,-1.318 z"
       fill="#faded4"
       fill-rule="evenodd"
       id="path3855" />
    <path
       d="m 339.154,483.147 c -0.6,0.24 -1.239,-0.24 -1.239,-0.88 -0.2,-0.679 0,-1.358 0.64,-1.358 0,0 -3.558,1.119 -6.676,0 -3.118,-1.08 -9.554,-6.876 -11.033,-8.435 -1.44,-1.52 -4.158,-6.636 -5.837,-7.516 -1.839,-0.68 -4.557,-7.795 -4.157,-9.794 0.24,-1.759 -0.4,-5.956 -1.24,-7.315 -0.6,-1.56 -1.039,-6.876 -0.2,-7.996 0.84,-1.319 0.84,-4.437 0.64,-5.516 0,-1.36 0.8,-5.797 1.24,-6.676 0.4,-0.88 1.039,-1.32 1.039,-2.878 0,-1.8 -0.44,-6.237 1.239,-7.996 1.44,-1.998 0.64,-3.318 0.4,-5.116 -0.4,-1.76 0,-3.558 0.84,-6.197 0.839,-2.438 -1.24,-5.317 -0.4,-8.235 0.6,-3.078 0.6,-6.876 0.4,-9.314 -0.2,-1.56 -0.4,-4.198 -0.6,-5.757 -1.28,-0.24 -2.519,-0.88 -3.758,-1.799 l 1.24,3.119 c 0.439,2.238 0.439,5.116 0.439,7.795 0,1.759 -0.64,3.758 -0.64,5.077 -0.2,1.799 0,3.797 0,5.796 -0.2,1.52 -0.2,2.879 -0.2,3.518 0,0.68 -0.64,3.118 -0.84,5.557 -0.199,3.318 0.2,6.876 -0.199,8.435 -0.2,0.88 -1.48,3.318 -1.679,5.556 -0.4,1.76 0.2,3.558 -0.2,5.317 -0.2,1.999 -0.64,3.798 -0.64,4.877 -0.2,1.36 -0.6,4.238 -0.839,6.876 -0.2,2.918 -1.04,5.357 -0.8,6.676 0.2,0.88 1.04,2.199 1.04,3.118 0.4,2.638 0.84,5.517 2.079,7.755 1.639,2.879 2.478,5.997 3.957,7.116 0.8,0.44 1.64,3.318 3.318,5.757 1.04,1.319 2.279,1.758 3.318,3.317 1.04,1.36 2.079,2.439 2.918,3.358 3.758,3.758 11.673,5.957 14.552,5.077 1.679,-0.2 2.078,-0.88 2.078,-1.319 z m 32.181,-5.997 c 5.237,-1.118 9.594,0.88 12.912,3.079 3.318,2.438 5.837,3.998 8.955,4.877 3.118,1.12 3.518,3.798 7.275,4.677 12.872,1.32 16.43,-2.878 18.709,-5.317 2.518,-2.238 4.357,-1.799 6.236,-4.437 1.68,-2.678 2.079,-4.677 3.558,-7.116 1.44,-2.638 1.639,-7.515 2.479,-10.633 0.839,-3.118 -0.2,-7.995 -0.4,-10.674 -0.24,-2.878 -0.64,-6.636 -1.28,-9.314 -0.799,-2.638 -2.278,-5.077 -3.118,-7.955 -0.8,-2.918 -1.639,-7.116 -2.478,-9.794 -0.64,-2.639 0.2,-7.316 -0.2,-9.954 -0.44,-2.679 -1.48,-7.995 -1.48,-10.874 0,-2.878 -1.438,-7.795 -1.238,-9.754 0.2,-1.999 -0.4,-5.996 0,-8.874 0.2,-2.919 1.04,-5.357 1.239,-6.916 0,-1.52 0.64,-7.076 0.84,-9.075 0.2,-2.238 1.239,-8.435 0.44,-10.873 v -1.32 c 1.438,-0.879 1.238,-6.435 0.799,-7.555 0.44,-0.24 -0.4,0.44 0,0 0,0 1.279,4.677 1.279,5.997 -0.24,1.119 0.2,5.556 0.2,7.555 -0.2,1.759 0.2,5.757 -0.2,6.876 -0.44,1.08 -0.24,5.077 -0.44,6.436 -0.2,1.52 -0.4,2.439 -0.4,2.878 0,0.44 0.4,2.439 0,4.438 -0.2,1.998 -1.479,4.637 -1.479,5.756 0,1.12 0.64,3.318 0.64,4.437 0,1.12 0.84,3.118 0.84,4.198 0,1.12 0.599,3.997 0.599,5.556 0,2 0.24,4.438 0.24,6.437 0,1.759 0.6,4.237 0.8,5.996 0.24,1.759 0.639,3.758 0.839,5.317 0.2,1.319 0,2.438 0.44,4.877 0.4,2.238 1.039,3.558 1.239,4.437 0.2,1.12 1.24,1.56 1.879,3.798 0.4,2.438 -0.24,3.078 0.2,4.437 0.4,1.32 1.239,2.878 1.639,4.637 0.44,1.76 1.279,7.116 1.279,8.675 0.2,1.52 0.8,3.958 0.6,5.757 0,1.998 -0.2,5.996 -0.84,8.874 -0.6,2.878 -2.478,5.757 -3.318,7.516 -0.84,1.798 -2.279,6.236 -4.157,7.795 -1.88,1.32 -4.997,2.199 -6.237,4.197 -2.478,3.118 -6.436,3.118 -8.714,4.438 -2.08,1.119 -5.437,1.119 -9.155,1.119 -3.758,0 -5.636,0.2 -7.275,-2.439 -1.68,-2.438 -3.958,-0.68 -5.837,-2.878 -1.879,-2.238 -4.357,-2.878 -7.276,-5.556 -2.918,-2.439 -7.915,-3.758 -10.633,-3.758 z m 46.772,-136.277 c -0.2,2.2 -3.119,4.877 -3.119,7.556 -0.2,2.638 -0.799,3.997 -1.639,5.756 -0.64,2 -0.4,3.998 -1.439,6.676 -0.84,2.439 -1.039,4.877 -2.518,6.197 -1.64,1.319 -2.279,2.678 -3.318,4.237 -0.84,1.759 -1.68,5.517 -2.718,7.076 -1.24,1.359 -2.28,2.918 -2.28,2.918 -3.717,0.2 -6.635,3.518 -7.674,5.077 -1.88,-0.44 -6.037,1.359 -7.476,3.358 -1.879,-0.92 -7.275,-0.92 -9.554,1.08 -1.68,-1.08 -6.676,-0.44 -9.354,0.439 -1.28,-0.44 -6.237,-1.52 -9.355,-0.88 -1.879,-0.88 -7.715,-0.64 -8.515,-1.119 -0.84,-0.44 -2.918,-2.199 -4.797,-2.638 -2.078,-0.44 -4.357,-0.88 -5.836,-2.679 -1.64,-1.998 -5.997,-8.874 -8.915,-9.314 -1.04,-1.56 -3.318,-3.318 -6.876,-4.877 -1.039,-1.56 -4.957,-5.357 -7.675,-6.436 -0.84,-1.36 -2.718,-3.358 -6.036,-3.798 l -0.84,-0.88 c 0.44,0 0.84,-0.2 1.28,-0.44 0.799,-0.439 1.838,-1.118 2.478,-1.758 2.079,0.88 7.076,4.877 7.915,5.317 1.04,0.44 3.518,2.438 4.158,3.118 0.6,0.88 3.118,1.999 4.357,2.638 1.24,0.68 2.918,2.679 3.518,3.358 0.4,0.64 3.957,6.196 5.197,6.876 1.439,0.64 3.518,2.638 4.357,3.558 0.84,0.64 4.597,0.64 6.436,1.32 1.68,0.679 4.158,3.557 6.236,3.557 2.08,0 3.758,0 5.837,-0.24 2.079,0 4.997,1.799 6.636,1.36 1.479,-0.24 1.679,-0.48 4.157,-1.12 2.279,-0.68 4.598,-0.24 7.916,-0.68 3.118,-0.44 5.396,-0.2 7.475,-1.319 2.279,-1.12 5.397,-0.24 6.636,-1.799 1.24,-1.559 4.357,-3.757 6.876,-5.317 0.4,-1.559 3.318,-4.677 3.518,-4.877 2.278,-2.238 2.278,-3.557 3.318,-5.116 1.039,-1.76 2.718,-5.317 3.558,-7.996 1.039,-2.638 1.039,-7.755 2.478,-9.554 1.04,-1.319 1.879,-3.078 2.079,-5.317 1.04,-1.319 1.439,-1.319 2.078,-3.318 0.84,-2.238 2.28,-3.358 2.479,-2.238 -0.4,0.24 -1.04,1.559 -1.04,2.238 z"
       fill="#fdefe9"
       fill-rule="evenodd"
       id="path3857" />
    <path
       d="m 367.177,383.488 c 2.08,-0.2 4.158,-1.52 6.237,-2 1.879,-0.2 3.558,0 5.436,-0.439 1.84,-0.44 3.318,-1.559 5.397,-1.559 1.64,-0.2 3.318,0.24 4.757,-0.64 a 623.37,623.37 0 0 1 4.358,-2.678 c 1.679,-0.88 2.078,-1.559 3.957,-1.559 1.88,-0.24 3.558,-1.56 4.557,-3.118 0.64,-1.12 2.08,-4.238 1.88,-5.357 -0.84,0.24 -1.04,1.12 -1.88,1.56 -0.8,0.479 -1.239,0.479 -1.838,1.118 -1.24,0.88 -0.84,2.679 -1.68,3.998 -0.839,1.36 -2.478,1.12 -3.717,1.12 -1.879,0 -3.558,0.879 -4.797,2.238 -1.44,1.32 -2.719,1.999 -4.797,1.999 -2.08,0 -3.918,-0.88 -5.797,0.68 -0.4,0.44 -0.84,1.319 -1.24,1.558 -0.639,0.44 -1.878,0.2 -2.717,0.2 -2.679,0 -4.997,0.68 -7.276,2.239 z"
       fill="#fdf8f5"
       fill-rule="evenodd"
       id="path3859" />
    <path
       d="m 402.556,369.496 c 2.479,-3.958 4.997,-7.955 6.436,-12.392 1.04,-2.879 1.24,-5.997 2.678,-8.635 0.64,-1.56 1.28,-2.918 1.88,-4.438 0.2,-0.919 2.478,-3.357 1.878,-4.237 -1.439,-1.559 -7.675,3.118 -7.475,4.877 1.04,0.24 2.278,-1.08 2.918,0.88 0.4,0.919 0,2.438 -0.44,3.358 -0.2,1.559 -1.04,1.998 -2.078,2.638 -1.84,1.12 -1.24,1.12 -0.4,2.878 0.6,0.92 0.84,1.8 0.2,2.878 -0.84,1.36 -1.64,0.68 -2.679,1.8 -0.84,0.879 -0.24,1.758 -0.44,3.077 -0.2,2.439 -2.278,4.438 -2.918,7.116 z m -40.176,6.876 c -1.239,-0.48 -2.678,-0.24 -3.957,0.2 -1.24,0.44 -3.558,3.598 -1.88,4.917 1.04,-0.64 1.28,-2.439 2.32,-3.358 0.839,-0.88 2.278,-1.76 3.317,-1.76 z m 10.634,-1.119 c -3.278,-1.36 -7.036,2.718 -4.118,5.836 -0.84,-2.239 1.64,-5.836 3.918,-5.836 z m 9.114,-1.999 c -1.239,0.24 -4.317,0.24 -4.717,1.999 -0.24,0.879 0.4,1.998 0.6,2.878 0,0.88 -0.2,1.759 0,2.638 0.64,-0.2 1.879,-1.519 2.678,-1.959 -2.878,0 -1.639,-5.556 0.44,-5.077 z m -37.417,3.997 c 1.08,-2.878 5.037,-3.118 7.116,-1.998 -2.479,-0.64 -4.158,0.44 -6.276,1.559 z m -9.914,-5.516 c 1.879,-0.44 3.118,-1.6 5.197,-1.12 1.44,0.24 2.678,0.92 3.278,2.479 -2.479,-1.36 -4.717,-1.56 -7.635,-1.56 z m 0.8,21.507 c 0.24,-2.199 1.878,-4.837 4.157,-5.277 1.68,-0.48 3.958,1.08 5.597,1.959 0,0.44 -0.4,0 -0.4,0.44 -1.24,-0.44 -2.079,-0.88 -3.518,-0.88 -1.24,-0.2 -3.318,0.68 -4.157,1.559 z m 10.833,3.278 c -0.84,-1.96 0,-5.477 2.079,-5.917 1.439,-0.24 5.556,0.2 6.356,1.76 -1.839,0.2 -3.278,-0.68 -5.117,-0.24 -1.04,0.24 -3.118,1.119 -3.318,2.438 z m 11.193,1.839 c 0,-2.439 -0.84,-4.877 1.68,-5.957 1.438,-0.92 5.196,-0.92 6.435,0.44 -2.478,0.44 -7.675,0 -7.475,4.437 z m 11.273,-0.24 c 0,-1.76 -0.44,-4.198 0.84,-5.277 1.44,-1.36 4.117,-0.68 5.357,0.2 -1.24,0.24 -6.636,-1.08 -6.197,4.197 z m 9.554,-1.999 c -1.678,-4.637 2.879,-7.116 6.397,-4.637 -1.84,0.2 -7.436,0.2 -6.396,3.558 z m -53.087,-9.994 c 0.24,-2.199 1.679,-6.836 3.558,-7.955 3.118,-1.8 5.796,4.197 6.836,6.196 -1.44,-1.32 -3.918,-4.637 -5.997,-4.197 -1.28,0.2 -2.518,1.559 -3.118,2.878 z m -8.635,-5.996 c -0.24,-3.079 2.678,-7.276 5.597,-8.155 1.639,-0.48 3.318,0.879 4.317,3.318 -3.078,-3.318 -7.875,-0.44 -9.314,2.438 z m -7.276,-5.997 c 0.44,-6.156 3.518,-9.034 6.636,-8.155 3.318,0.88 4.318,3.318 4.318,3.318 -1.84,-1.12 -7.196,-4.437 -10.954,4.837 z m -6.236,-6.876 c 0.44,-2.198 1.48,-4.637 3.118,-5.956 2.279,-1.799 3.718,-0.68 5.357,0.88 -2.478,-0.88 -4.517,0.44 -6.596,2.198 z m 67.719,111.693 c -4.957,2.238 -16.63,12.192 -9.954,27.663 -1.239,-6.196 0.2,-20.348 9.954,-27.663 z m -10.433,32.06 c -1.88,5.357 -1.88,11.793 0,16.67 1.878,4.877 10.193,12.633 10.593,19.948 -0.4,-8.395 -5.796,-15.31 -8.515,-20.627 -2.678,-5.317 -2.918,-11.553 -2.078,-15.99 z m 57.125,-35.258 c -2.199,0.92 -2.639,2.478 -2.639,4.237 z m -4.277,-74.075 c 0.839,-1.76 2.278,-2.439 3.477,-2.679 -2.838,0.24 -4.717,0 -4.717,2.679 0,2.638 0,4.597 1.04,5.476 -0.2,-0.88 -0.4,-3.718 0.2,-5.476 z m -1.48,-9.994 c 0.84,-1.76 2.279,-2.439 3.518,-2.679 -2.918,0.24 -4.797,0 -4.797,2.679 0,2.638 0,4.597 1.08,5.476 -0.24,-0.88 -0.44,-3.717 0.2,-5.476 z m 2.919,21.347 c 0.84,-1.76 2.318,-2.439 3.557,-2.639 -2.918,0.2 -4.397,-0.68 -4.797,2.639 -0.24,2.638 0,4.597 1.04,5.476 -0.2,-0.88 -0.44,-3.717 0.2,-5.476 z m 1.639,11.992 c 0.64,-1.759 2.358,-2.438 3.597,-2.678 -2.958,0.24 -4.877,0 -4.877,2.678 0,2.639 0,4.598 1.08,5.477 -0.44,-0.88 -0.44,-3.718 0.2,-5.477 z m 2.878,7.476 c -0.6,0 -2.439,0 -3.078,0.48 -0.84,1.119 0.84,4.477 1.239,5.356 -0.2,-0.88 -0.6,-2.238 -0.6,-3.358 0.2,-1.319 1,-1.559 2.04,-1.998 z m 5.277,8.235 c -1.88,0.48 -2.919,0 -4.797,0.48 -2.559,0.44 -0.64,3.557 -0.24,5.116 -1.48,-3.118 0.84,-4.477 3.358,-4.917 z m 0.599,7.755 c -0.84,0 -3.358,-0.48 -4.197,0.2 -1.28,0.88 0,3.998 1.04,4.437 -0.6,-0.64 -0.84,-2.438 -0.2,-3.318 0.639,-0.68 2.718,-1.319 3.557,-1.319 z m 2.438,8.435 c -1.438,0.24 -2.877,-0.44 -4.357,-0.68 -1.039,-0.24 -1.039,-0.24 -1.439,0.92 -0.2,0.88 -0.44,2.918 0.2,3.558 0,-1.12 0,-2.679 0.84,-3.358 1.04,-0.44 3.957,0 4.757,0 z m -0.399,8.275 c -0.8,-0.24 -1.839,-0.44 -2.678,-0.88 -0.6,-0.24 -1.44,-0.879 -2.079,-1.119 -1.639,-0.24 -2.279,4.198 -2.039,5.517 0.4,-1.08 0.4,-3.078 1.44,-3.958 1.039,-0.44 2.878,0 3.717,0.2 z m 13.112,-5.597 c -1.24,-0.2 -2.878,-1.119 -3.917,0.24 -1.28,1.76 -0.44,4.198 -0.84,6.157 0.2,-3.079 1.44,-6.836 4.757,-6.397 z m -1.039,-11.033 c -1,0.24 -2.479,-0.24 -3.278,0.68 -1.28,1.519 -0.24,3.957 0.2,5.476 -0.2,-1.079 -0.44,-3.517 0.2,-4.597 0.6,-0.88 1.878,-1.12 2.878,-1.559 z m -5.157,-4.078 c 0.2,-1.558 -1.48,-3.557 -0.64,-5.116 1.04,-1.6 4.158,-0.92 5.397,-0.48 -1.04,0.48 -2.279,0 -3.518,0.48 -1.439,0.44 -1.04,1.319 -1.24,2.678 z m -2.079,-9.354 c -0.2,-0.88 -0.2,-1.519 -0.64,-2.438 -0.2,-0.44 -0.839,-1.32 -0.839,-1.76 0.44,-1.318 3.598,-1.798 4.397,-1.318 -0.8,0.2 -1.878,0 -2.478,0.88 -0.44,0.639 -0.84,2.438 -0.64,3.117 z m -3.398,-9.994 c 0.2,-1.319 -0.64,-2.878 0,-3.957 0.64,-1.32 2.479,-1.8 3.518,-1.56 -1.839,0.44 -3.518,2.2 -3.518,4.438 z m 2.319,-17.269 c -1.84,0.68 -4.158,0 -4.158,2.678 0,2.239 1.48,3.998 1.28,6.196 -0.24,-0.879 0,-1.759 0,-2.878 0.2,-0.88 0,-1.559 -0.24,-2.438 -0.2,-1.76 0.84,-2.879 2.318,-3.318 z m -1.839,-9.275 c -1.24,0 -2.079,-0.24 -2.519,0.88 -0.839,1.759 0.44,3.518 0.44,5.037 0,-1.32 -0.2,-2.199 0.4,-3.718 0.64,-1.32 0.64,-1.559 1.679,-2.199 z m -0.4,-8.434 c -0.8,0 -1.639,-0.92 -2.718,-0.44 -1.68,0.88 -0.84,4.197 -0.2,5.516 -0.4,-2.878 0.2,-4.877 2.918,-5.076 z m -2.558,-9.954 c 1.279,1.759 -0.2,4.397 -0.64,5.916 0.88,-1.08 1.72,-2.199 1.919,-3.718 0,-1.12 -0.44,-2.198 1.04,-2.198 -0.4,-0.48 -1.24,-0.48 -1.88,-0.48 z m 3.918,-8.435 c -1.2,0 -2.2,-0.92 -2.999,0.44 -0.84,1.319 0.2,3.317 -0.6,4.876 0.6,-1.319 0.8,-2.198 1.2,-3.557 0.4,-1.56 1,-1.32 2.198,-1.56 z m 0.32,-9.395 c -0.84,0 -1.88,0 -2.52,0.92 -0.44,0.88 0,2.878 0.2,3.957 0,-1.319 0.44,-4.197 2.12,-4.397 z m -115.051,54.807 c 2.119,0.88 5.277,-0.44 6.956,2.199 -1.44,-1.08 -3.758,-1.32 -5.477,-1.32 z m 5.676,11.553 c -2.078,-0.64 -4.957,-1.12 -7.035,-0.2 -2.079,0.88 -2.319,4.677 -0.84,6.197 -0.64,-3.998 1.04,-5.997 4.997,-5.997 z m -1.679,10.154 c -2.678,0 -5.396,-1.12 -7.875,1.12 -2.518,2.438 0.6,6.675 1.64,9.114 -2.08,-5.117 -1.44,-9.315 4.157,-10.234 z m 0.16,11.673 c -2.678,-0.24 -7.035,2.199 -6.596,5.317 0.2,1.759 1.44,4.397 2.479,5.716 1.04,1.32 2.278,1.76 2.478,3.518 -0.4,-3.078 -2.878,-5.277 -3.118,-8.355 -0.4,-2.878 1.88,-4.437 4.158,-5.756 z m 4.158,17.19 c 0.64,-2.839 3.758,-6.357 6.476,-6.796 2.718,-0.24 7.715,3.517 8.315,6.156 -1.44,-1.759 -4.158,-3.518 -6.436,-4.397 -2.079,-1.12 -2.719,0.44 -4.597,1.079 z m -3.038,-60.524 c -1.44,-0.24 -3.158,-0.48 -4.198,1.08 -1.08,1.319 -0.64,3.557 0.4,5.076 -0.6,-2.638 0,-2.638 1.28,-4.397 1.079,-1.559 0.639,-1.559 2.518,-1.999 z m 1.199,-8.834 c -1.44,0.2 -2.678,-0.68 -3.918,0 -1.679,0.879 -1.439,3.477 -0.84,4.757 0.64,-2.599 1.24,-3.478 3.519,-4.558 z m -14.471,-4.917 c -1.44,0.919 -2.879,0.68 -3.518,2.678 -0.64,2.199 -0.2,4.877 0.64,6.836 0.6,-1.52 -0.24,-3.958 0.2,-5.717 0.599,-1.799 1.239,-2.438 2.678,-3.558 z m 0.799,11.273 c -1.839,0.92 -3.318,1.119 -4.357,3.158 -0.6,1.559 -1.879,6.716 -0.6,7.795 0.2,-3.318 1.24,-9.594 4.757,-10.474 z m -0.4,15.111 c -1.239,-0.48 -4.117,-0.48 -5.356,0.879 -1.28,1.32 -1.28,6.236 -0.24,7.755 0.24,-2.438 -0.4,-4.437 1.04,-6.436 0.639,-1.12 2.078,-2.198 3.557,-1.999 z m -2.078,12.392 c -1.64,-0.48 -2.918,-0.48 -4.158,1.12 -1.279,1.558 -1.279,4.477 -0.2,6.236 -0.44,-2.879 0.6,-6.916 3.558,-7.356 z m -1.279,11.113 c -1.64,0.24 -2.679,0 -3.518,1.8 -1.04,2.238 -1.28,5.116 -0.2,7.315 0.4,-1.32 0,-3.078 0.4,-4.637 0.64,-2.24 1.239,-3.798 2.918,-3.798 z m 1.279,12.393 c -5.037,2.238 -2.079,8.914 0.4,11.993 -1.04,-2.2 -3.758,-10.194 -0.4,-11.753 z m 4.917,13.352 c -2.439,2.678 -2.439,7.795 0.6,9.994 -1.6,-1.76 -1.8,-6.197 -0.8,-8.435 z M 328.96,365.059 c 1.28,-0.44 3.558,-0.68 4.558,0.68 z m 91.465,-10.234 c -1.04,-0.68 -3.118,-0.92 -4.157,-0.44 -0.6,0.44 -1.24,1.12 -1.44,1.76 -0.24,0.679 -0.24,2.478 0,3.117 0.6,-0.88 0.6,-2.198 1.04,-2.878 0.84,-1.12 2.079,-1.799 3.118,-1.799 z m 0.56,-7.755 c -1,-0.92 -2.639,-0.68 -3.478,0 -1.24,1.119 -0.8,2.878 -1.24,4.197 0.84,-1.999 2.48,-4.637 4.718,-4.437 z m -5.117,16.03 c -1.04,-1.36 -2.519,-1.36 -3.118,0.2 -0.44,0.68 -0.44,1.559 -0.64,2.198 -0.44,0.68 -0.84,1.12 -1.279,1.76 0.64,0 1.28,0.44 1.679,0.879 -0.84,-1.76 0.84,-4.837 2.119,-5.717 z m -5.837,7.316 c -0.839,-0.92 -1.878,0.44 -2.278,0.879 -1.04,1.12 -1.04,2.438 -1.24,3.798 -0.2,1.079 -0.4,1.998 -1.039,2.878 -0.4,0.68 -1.439,1.12 -1.679,1.759 0.84,-0.2 1.48,-1.08 2.519,-1.32 0.8,-0.2 0.8,0.44 1.639,0.68 -1.64,-1.999 -1.24,-6.916 1.879,-6.236 -0.4,-0.68 0,-1.999 0.6,-2.438 z m -14.151,15.71 c 0.44,-0.2 0.44,-0.64 0.64,-1.08 0.64,-0.919 1.679,-1.359 2.518,-1.558 1.04,-0.48 3.958,-1.6 4.358,0.2 -1.88,-0.68 -4.158,0.24 -5.397,1.798 z"
       fill="#fdf8f5"
       fill-rule="evenodd"
       id="path3861" />
    <path
       d="m 382.728,502.495 c 1.24,2.2 0.64,3.758 0,6.397 -0.6,2.918 -1.04,3.358 -0.2,5.556 0.2,0.88 1.04,2.439 1.04,5.117 0.2,3.758 -0.84,9.514 -3.119,13.952 -4.157,7.755 -6.636,9.314 -7.275,13.951 0.64,-4.637 0.64,-7.315 2.518,-11.273 1.88,-3.798 6.636,-10.674 4.957,-18.629 -1.839,-8.874 0.24,-10.433 -0.6,-11.992 -0.639,-1.32 2.48,-3.998 2.679,-3.079 z m -2.678,-1.838 c 4.157,-2.679 4.397,-1.8 8.315,0.2 3.757,1.998 7.915,5.556 14.35,6.236 6.437,0.64 9.155,0.44 9.795,-1.56 0.8,-1.798 0,-3.557 0,-3.557 0,1.759 -1.28,3.997 -6.236,3.558 -4.997,-0.44 -8.115,-1.56 -13.312,-4.438 -5.397,-3.118 -9.155,-5.356 -12.912,-0.44 z m 34.539,0.479 c 0.2,1.56 -0.64,4.198 1.439,3.118 1.24,-0.48 2.878,-2.038 3.917,-3.118 2.28,-2.478 3.918,-4.677 2.479,-8.275 -0.2,2.239 -0.4,3.798 -2.039,5.357 -1.679,1.799 -3.318,1.56 -5.397,2.678 z m 9.594,-9.834 c 0.64,1.12 0.64,2.439 2.079,2.239 1.239,0 2.078,-1.36 2.918,-2.239 0.84,-1.319 4.117,-5.556 1.839,-6.916 0.84,2.919 -2.479,6.477 -5.157,6.477 z m 7.475,-10.154 c 2.08,3.079 4.158,-0.48 5.197,-2.238 1.24,-2.239 1.44,-4.438 2.039,-6.916 -1.24,2.239 -4.118,10.234 -7.675,9.154 z m 9.914,-18.188 c 0.2,1.798 -0.84,8.634 -3.957,6.236 1.879,-0.48 2.318,-1.56 3.118,-3.118 z m -2.038,-21.188 c 0.2,0.92 0.8,2.958 0.4,3.838 -0.64,0.88 -1.68,0.88 -2.719,0.88 1.48,-0.44 1.879,-2.24 1.879,-3.558 z m -4.598,-20.387 c 0.6,1.359 0.6,3.158 0.6,4.477 0,2.239 -0.2,1.599 -2.079,2.039 1.88,-0.68 1.28,-2.919 1.88,-4.478 z m 2.119,10.233 c 0.2,1.12 0.8,2.719 0.4,3.838 -0.64,0.64 -1.24,0.44 -2.319,0.64 1.48,-0.64 1.92,-2 1.92,-3.558 z m -4.157,-21.746 c 0.2,1.798 2.238,8.634 -1.68,7.555 1.68,-1.12 1.04,-3.558 1.48,-5.317 z m -0.04,-9.515 c 0.2,1.76 0,6.157 -2.759,5.957 1.92,-0.88 2.359,-3.518 2.559,-5.277 z m -1.2,-7.995 c 0.2,0.92 1.24,4.637 -0.44,4.438 0.64,-1.32 0.44,-3.079 0.44,-4.438 z m -0.839,-39.256 c 1.36,2.678 0.6,5.077 0,6.396 z m -0.04,29.982 c 0.84,3.118 0.44,4.437 -0.68,4.637 z m -34.339,6.156 c 0.64,1.759 0.24,3.518 0.84,5.277 2.718,-0.88 5.396,-3.958 4.996,-7.036 -0.2,1.32 -1.879,5.517 -3.518,4.198 z m 9.194,-5.317 v 3.318 c 1.839,-0.2 3.678,-4.437 3.478,-6.476 -0.4,1.36 -1,3.798 -2.638,2.719 z m -17.829,9.115 c 0.2,1.559 0.2,2.918 -0.64,4.237 1.28,0.44 4.598,-0.68 5.837,-1.319 2.079,-1.36 1.479,-2.718 1.279,-5.197 0.2,2.039 -1.04,4.717 -3.158,4.957 z m -9.355,4.198 c 0,3.077 1.04,3.277 3.758,2.198 2.04,-0.88 3.278,-2.878 2.879,-5.317 0.4,2.679 -1.44,3.998 -3.718,3.758 z m -9.194,1.358 c -0.24,2.919 0.4,3.119 3.318,2.679 2.878,-0.68 2.878,-1.999 2.878,-5.157 0.2,2.918 -1.039,4.957 -3.717,4.037 z m -11.193,1.32 c 0.24,2.238 4.197,2.438 5.637,1.799 2.278,-1.12 2.078,-3.558 1.878,-6.237 -0.4,2.679 -1.239,4.917 -4.157,4.917 z m -10.633,-0.44 c 4.157,0.92 9.114,2.239 7.275,-4.717 0.4,4.277 -3.118,3.398 -5.597,4.957 z m -10.554,-3.798 c 1.679,0.88 2.678,2.838 4.757,2.639 2.039,-0.24 2.039,-2.879 2.039,-5.077 -1.2,4.197 -2.439,3.757 -5.317,2.878 z m -10.234,-7.076 c 1.28,1.32 2.918,4.878 4.797,5.317 2.678,0.44 1.04,-4.437 3.918,-5.556 -1.44,0.48 -2.479,2.238 -3.718,2.678 -2.079,0.68 -2.918,-1.759 -4.997,-1.999 z m -9.354,-5.756 c 0.84,1.32 2.918,4.877 4.997,3.798 1.639,-0.92 0.2,-4.717 1.639,-6.277 -1.44,1.36 -1.64,2.479 -2.279,4.238 -1.24,0 -2.478,-0.2 -3.518,-0.88 z m -7.036,-4.678 c 1.04,1.32 2.279,2 3.718,2.2 0,-1.96 -0.2,-3.518 1,-5.277 -1.4,1.119 -2.24,4.637 -4.478,2.638 z"
       fill="#f7c2b0"
       fill-rule="evenodd"
       id="path3863" />
    <path
       d="m 314.37,382.848 c 0.6,2.638 1.239,5.077 3.118,7.076 1.039,1.319 4.557,4.237 2.278,5.996 1.48,-0.88 3.358,-0.24 4.997,0.2 0.2,-1.959 -0.84,-4.637 -0.84,-6.636 -3.317,1.999 -10.633,-3.558 -8.754,-7.116 z m 9.794,16.15 c 0.64,1.36 1.039,4.038 0.24,5.357 -1.04,1.999 -2.919,0.44 -5.038,0 2.719,0.92 4.198,-1.56 4.598,-3.998 z m 0.639,9.514 c 0,1.36 0,5.997 -1.24,6.916 -1.278,1.08 -4.197,-0.92 -6.115,-0.44 1.679,-0.919 3.797,-0.48 5.276,-1.119 1.64,-0.88 1.64,-3.358 2.479,-4.877 z m -1.039,12.633 c 0.2,1.799 0.8,5.157 -1.24,5.796 -1.678,0.44 -3.957,-1.559 -6.036,-0.88 2.719,-1.798 7.276,0.44 7.276,-4.437 z m -0.24,9.834 c 0.2,1.12 1.44,5.996 0,6.636 -0.2,0 -2.279,-1.08 -2.718,-1.08 -0.8,-0.24 -2.279,-0.24 -3.119,-0.24 1.04,0 3.119,-0.2 4.158,-0.639 1.479,-0.88 1.04,-2.239 1.679,-3.758 z m 0.44,10.154 c 0,2.038 0.6,6.076 -1.44,6.716 -0.64,0.24 -2.478,0 -3.317,0.24 -1.04,0.24 -2.08,0.44 -3.119,0.879 1.68,-0.64 3.758,-1.999 5.197,-2.678 1.84,-1.12 2.039,-2.439 2.679,-4.918 z m 1.239,11.113 c 0.4,1.559 3.518,3.997 3.518,5.597 -0.2,1.758 -4.158,3.797 -5.437,5.116 1.68,-1.319 2.519,-3.797 2.519,-5.796 0,-2.039 -1.44,-3.598 -1.24,-5.397 z m 2.638,23.825 c 1.88,3.518 6.676,3.518 9.794,3.318 2.279,-0.24 3.958,-1.119 4.158,-3.997 0.2,-1.799 -0.6,-4.677 -1.879,-5.797 0.64,2.239 1.48,5.797 -0.6,7.116 -2.718,1.799 -6.236,2.439 -11.233,-0.44 z m -9.114,11.074 c 2.119,2.878 6.476,5.077 9.794,4.877 2.518,-0.24 7.076,-3.558 6.676,-6.436 -2.479,1.998 -7.516,-0.88 -9.794,-2.239 1.239,1.12 2.918,2.918 1.239,4.437 -1.04,1.12 -3.958,0.92 -4.997,-0.2 z m -0.84,-10.714 c -1.839,1.36 -2.678,3.998 -2.878,6.197 -0.8,-2.399 -0.2,-3.758 0,-6.197 0.2,-1.959 -1.24,-3.957 -1,-6.196 1.2,2.239 3.279,4.877 5.517,5.996 z"
       fill="#f7c2b0"
       fill-rule="evenodd"
       id="path3865" />
    <path
       d="m 314.57,415.868 c 3.557,-0.48 7.515,0.44 9.594,2.638 m -10.394,8.475 c 2.718,-0.24 8.115,0.44 10.154,2.159 m -11.194,8.515 c 3.958,-0.68 8.955,-0.24 12.073,2.118 m -0.24,10.074 c -3.078,-0.64 -7.875,-0.88 -10.793,1.52 m 17.03,7.755 c -4.118,1.359 -8.475,6.916 -8.715,8.874"
       fill="none"
       stroke="#1a171b"
       stroke-width="0.8"
       stroke-linecap="round"
       stroke-linejoin="round"
       id="path3867" />
    <path
       d="m 338.555,480.949 c -0.6,0 -0.84,0.68 -0.6,1.319 0,0.68 0.6,1.119 1.24,0.92 0.4,0 0.839,0.199 1.678,1.079 1.44,1.119 3.318,2.878 6.237,1.798 2.478,-0.88 4.157,-1.559 4.997,-2.238 0,0 1.439,-0.88 1.639,-1.32 0.2,-0.679 0.2,-1.319 -0.4,-1.558 -0.84,-0.44 -1.48,0 -2.279,0.44 -0.84,0.679 -2.318,1.558 -4.597,2.438 -1.879,0.44 -2.918,-0.44 -4.157,-1.56 -1.04,-0.879 -2.28,-1.998 -3.758,-1.318"
       fill="none"
       stroke="#1a171b"
       stroke-width="1.199"
       stroke-linecap="round"
       stroke-linejoin="round"
       id="path3869" />
    <path
       d="m 310.652,466.957 c -1.64,1.56 -3.038,2.838 -3.278,5.437 m 9.914,6.236 c -1.2,1.599 -1.2,5.637 -0.8,6.956 m -14.951,-28.623 c 0.84,-1.759 4.158,-2.398 4.957,-2.638 m -5.836,-11.353 c 2.079,-1.84 5.596,-1.12 5.596,-1.12 m -4.957,-11.073 c 1.88,-0.68 5.197,0.2 5.197,0.2 m -3.757,-12.433 c 2.118,-0.44 6.276,0 6.875,0.44 m -5.836,-13.272 c 1.879,-1.36 5.357,-1.599 5.357,-1.599 m 9.594,1.839 c 3.358,-0.24 6.876,1.04 6.876,1.04 m -6.876,-9.834 c 1.679,0 5.636,0 6.636,1.199 m -21.747,-4.478 c 2.079,-1.759 4.717,-1.519 5.117,-1.519"
       fill="none"
       stroke="#1a171b"
       stroke-width="0.8"
       stroke-linecap="round"
       stroke-linejoin="round"
       id="path3871" />
    <path
       d="m 303.656,371.775 c 1.28,4.237 2.518,6.236 4.997,5.556 0.2,2.879 4.957,5.117 7.036,5.117 0,3.518 3.757,6.836 8.914,6.396"
       fill="none"
       stroke="#1a171b"
       stroke-width="1.199"
       stroke-linecap="round"
       stroke-linejoin="round"
       id="path3873" />
    <path
       d="m 321.205,370.376 c -3.278,2.918 -6.396,7.115 -5.556,11.992 m 13.711,-6.476 c -2.678,1.8 -7.035,9.754 -4.757,12.633 m 15.311,-2.799 c -2.878,2.679 -5.996,2.679 -5.357,10.154 m 11.833,-5.756 c -1.24,2.478 -2.079,5.356 -1.44,9.594 M 314.01,364.38 c -4.358,1.558 -6.476,7.115 -5.637,12.871 m 10.993,-17.749 c 1.68,-1.36 3.918,-1.36 3.918,-1.36 m 3.998,6.957 c 2.478,-2 4.317,-1.32 4.317,-1.32 m 3.198,6.597 c 1.68,-1.52 2.878,-1.08 2.878,-1.08 m 8.875,4.597 c -1.799,0.24 -2.399,1.6 -3.038,3.358 m 12.072,-1.998 c -1.079,1.998 -1.519,5.516 -1.519,5.516 m 11.673,-5.037 c 0.64,1.56 1.04,5.517 1.04,5.517 m 0.24,11.273 c 0.4,3.158 1.039,4.717 -0.24,9.195 m -9.594,-9.835 c -0.8,2.479 -0.8,7.596 -0.6,9.115 m 19.308,-26.464 c 1.04,2.279 1.44,4.717 1.44,4.717 m -0.8,12.872 c 0.44,3.558 0.64,7.716 -0.48,9.035 m 9.994,-28.063 c 1.12,1.36 1.32,3.358 1.52,3.997 m -1.48,15.271 c 1.08,3.558 0.88,4.198 -0.44,6.396 m 9.594,-11.273 c 0.4,2.439 0.8,7.076 0.2,9.035 m -1.239,-27.664 c 1.68,1.36 3.358,5.517 3.358,5.517 m 6.436,8.155 c 1,2.479 0.2,5.597 -0.2,7.835"
       fill="none"
       stroke="#1a171b"
       stroke-width="0.8"
       stroke-linecap="round"
       stroke-linejoin="round"
       id="path3875" />
    <path
       d="m 410.471,382.408 c 1.28,-1.08 3.758,-3.757 3.558,-5.996 2.878,0.48 5.797,-6.876 5.797,-9.314 2.878,-2 4.357,-7.996 3.917,-10.234 1.44,-0.88 1.24,-6.436 0.84,-7.556"
       fill="none"
       stroke="#1a171b"
       stroke-width="1.199"
       stroke-linecap="round"
       stroke-linejoin="round"
       id="path3877" />
    <path
       d="m 419.146,345.51 c 3.318,0.24 4.997,2.24 5.597,4.238 m -8.475,3.358 c 2.718,0.48 6.436,1.36 7.435,3.758 m -10.633,3.518 c 3.757,0.48 6.436,4.037 6.636,6.476 m -8.875,2.638 c 1.679,1.56 3.118,3.758 3.118,7.276 m -0.159,1.119 c 2.478,-0.4 5.316,-0.2 5.916,0 m -9.275,11.353 c 2.119,-1.12 9.594,-0.88 9.994,-0.88 m -8.715,10.634 c 1.68,-0.64 8.475,-0.4 9.275,-0.4 m -7.195,10.874 c 1.478,0.24 6.835,0 8.474,-0.48 m 1.919,-20.467 c 1.879,0 6.396,0.48 7.595,1.359 m -6.796,-11.354 c 2.479,0 6.197,1.36 6.796,2.719 m -4.557,-11.353 c 2.119,0.24 5.277,1.839 5.277,1.839 m -5.437,-9.995 c 2.079,-0.879 4.557,-0.2 4.557,-0.2 m -4.158,-10.433 c 1.48,-0.48 3.919,0 3.919,0 m 1.679,55.247 c 0,0 -4.118,1.519 -5.997,1.12 m 0.16,-9.835 c 2.119,-0.48 5.677,0.48 5.677,0.48 m -18.149,23.545 c 1.918,0.44 6.316,0 7.755,-0.68 m 5.836,-1.838 c 2.279,-0.2 4.957,-0.64 5.757,-1.28 m -18.549,13.513 c 2.119,0.4 7.396,-0.6 8.635,-1.04 m 6.636,-1.199 c 2.318,-0.4 4.397,-0.8 5.836,-0.4 m -18.708,11.313 c 1.479,0.44 7.035,-0.2 7.435,-0.44 m 7.276,-1.838 c 1.279,-0.2 4.597,-1.04 5.596,-0.2 m -18.229,9.994 c 1.48,0 6.636,0.2 7.836,-0.2 m 7.675,0.24 c 2.359,0 4.877,-0.24 5.277,0 m -19.189,7.515 c 2.28,0.68 6.636,1.36 8.475,1.16 m 6.556,1.479 c 2.08,0.919 5.517,1.359 5.517,1.359 m -20.548,2.478 c 1.68,1.12 5.637,2.878 7.276,2.679 m 6.076,4.117 c 2.08,0.96 4.158,2.559 5.357,1.879 m -21.027,-1.879 c 1.08,2.279 3.598,3.398 5.037,3.838 m -2.559,17.749 c 1.08,2.039 2.399,3.358 2.799,5.357 m 4.717,-14.232 c 1.679,1.12 3.358,3.119 3.358,3.119 m -19.588,16.39 c 0.88,1.799 0.88,4.877 0.44,5.756"
       fill="none"
       stroke="#1a171b"
       stroke-width="0.8"
       stroke-linecap="round"
       stroke-linejoin="round"
       id="path3879" />
    <path
       d="m 378.89,503.775 c 1.68,-2 2.279,-2.879 4.957,-3.118"
       fill="none"
       stroke="#1a171b"
       stroke-width="1.199"
       stroke-linecap="round"
       stroke-linejoin="round"
       id="path3881" />
    <path
       d="m 302.097,378.53 c 1.28,2.919 3.598,3.798 5.676,3.998"
       fill="none"
       stroke="#1a171b"
       stroke-width="0.8"
       stroke-linecap="round"
       stroke-linejoin="round"
       id="path3883" />
    <path
       d="m 339.154,483.147 c -0.6,0.24 -1.239,-0.24 -1.239,-0.88 -0.2,-0.679 0,-1.358 0.64,-1.358 0,0 -3.558,1.119 -6.676,0 -3.118,-1.08 -9.554,-6.876 -11.033,-8.435 -1.44,-1.52 -4.158,-6.636 -5.837,-7.516 -1.839,-0.68 -4.557,-7.795 -4.157,-9.794 0.24,-1.759 -0.4,-5.956 -1.24,-7.315 -0.6,-1.56 -1.039,-6.876 -0.2,-7.996 0.84,-1.319 0.84,-4.437 0.64,-5.516 0,-1.36 0.8,-5.797 1.24,-6.676 0.4,-0.88 1.039,-1.32 1.039,-2.878 0,-1.8 -0.44,-6.237 1.239,-7.996 1.44,-1.998 0.64,-3.318 0.4,-5.116 -0.4,-1.76 0,-3.558 0.84,-6.197 0.839,-2.438 -1.24,-5.317 -0.4,-8.235 0.6,-3.078 0.6,-6.876 0.4,-9.314 -0.2,-1.56 -0.4,-4.198 -0.6,-5.757 -1.28,-0.24 -2.519,-0.88 -3.758,-1.799 l 1.24,3.119 c 0.439,2.238 0.439,5.116 0.439,7.795 0,1.759 -0.64,3.758 -0.64,5.077 -0.2,1.799 0,3.797 0,5.796 -0.2,1.52 -0.2,2.879 -0.2,3.518 0,0.68 -0.64,3.118 -0.84,5.557 -0.199,3.318 0.2,6.876 -0.199,8.435 -0.2,0.88 -1.48,3.318 -1.679,5.556 -0.4,1.76 0.2,3.558 -0.2,5.317 -0.2,1.999 -0.64,3.798 -0.64,4.877 -0.2,1.36 -0.6,4.238 -0.839,6.876 -0.2,2.918 -1.04,5.357 -0.8,6.676 0.2,0.88 1.04,2.199 1.04,3.118 0.4,2.638 0.84,5.517 2.079,7.755 1.639,2.879 2.478,5.997 3.957,7.116 0.8,0.44 1.64,3.318 3.318,5.757 1.04,1.319 2.279,1.758 3.318,3.317 1.04,1.36 2.079,2.439 2.918,3.358 3.758,3.758 11.673,5.957 14.552,5.077 1.679,-0.2 2.078,-0.88 2.078,-1.319 h -0.2"
       fill="none"
       stroke="#1a171b"
       stroke-width="0.32"
       stroke-linecap="round"
       stroke-linejoin="round"
       id="path3885" />
    <path
       d="m 405.634,484.626 c -1.439,1.36 0,4.957 0,4.957"
       fill="none"
       stroke="#1a171b"
       stroke-width="0.8"
       stroke-linecap="round"
       stroke-linejoin="round"
       id="path3887" />
    <path
       d="m 359.942,507.053 c 1.08,2.758 2.718,4.557 2.718,4.557"
       fill="none"
       stroke="#1a171b"
       stroke-width="1.199"
       stroke-linecap="round"
       stroke-linejoin="round"
       id="path3889" />
    <path
       d="m 418.107,473.993 c 0.44,1.359 1.079,2.718 2.318,3.358"
       fill="none"
       stroke="#1a171b"
       stroke-width="0.8"
       stroke-linecap="round"
       stroke-linejoin="round"
       id="path3891" />
    <path
       d="m 371.335,477.15 c 5.237,-1.118 9.594,0.88 12.912,3.079 3.318,2.438 5.837,3.998 8.955,4.877 3.118,1.12 3.518,3.798 7.275,4.677 12.872,1.32 16.43,-2.878 18.709,-5.317 2.518,-2.238 4.357,-1.799 6.236,-4.437 1.68,-2.678 2.079,-4.677 3.558,-7.116 1.44,-2.638 1.639,-7.515 2.479,-10.633 0.839,-3.118 -0.2,-7.995 -0.4,-10.674 -0.24,-2.878 -0.64,-6.636 -1.28,-9.314 -0.799,-2.638 -2.278,-5.077 -3.118,-7.955 -0.8,-2.918 -1.639,-7.116 -2.478,-9.794 -0.64,-2.639 0.2,-7.316 -0.2,-9.954 -0.44,-2.679 -1.48,-7.995 -1.48,-10.874 0,-2.878 -1.438,-7.795 -1.238,-9.754 0.2,-1.999 -0.4,-5.996 0,-8.874 0.2,-2.919 1.04,-5.357 1.239,-6.916 0,-1.52 0.64,-7.076 0.84,-9.075 0.2,-2.238 1.239,-8.435 0.44,-10.873 0,0 0,0 0,0 v -1.32 c 1.438,-0.879 1.238,-6.435 0.799,-7.555 0.44,-0.24 -0.4,0.44 0,0 0,0 0,0 0,0 0,0 1.279,4.677 1.279,5.997 -0.24,1.119 0.2,5.556 0.2,7.555 -0.2,1.759 0.2,5.757 -0.2,6.876 -0.44,1.08 -0.24,5.077 -0.44,6.436 -0.2,1.52 -0.4,2.439 -0.4,2.878 0,0.44 0.4,2.439 0,4.438 -0.2,1.998 -1.479,4.637 -1.479,5.756 0,1.12 0.64,3.318 0.64,4.437 0,1.12 0.84,3.118 0.84,4.198 0,1.12 0.599,3.997 0.599,5.556 0,2 0.24,4.438 0.24,6.437 0,1.759 0.6,4.237 0.8,5.996 0.24,1.759 0.639,3.758 0.839,5.317 0.2,1.319 0,2.438 0.44,4.877 0.4,2.238 1.039,3.558 1.239,4.437 0.2,1.12 1.24,1.56 1.879,3.798 0.4,2.438 -0.24,3.078 0.2,4.437 0.4,1.32 1.239,2.878 1.639,4.637 0.44,1.76 1.279,7.116 1.279,8.675 0.2,1.52 0.8,3.958 0.6,5.757 0,1.998 -0.2,5.996 -0.84,8.874 -0.6,2.878 -2.478,5.757 -3.318,7.516 -0.84,1.798 -2.279,6.236 -4.157,7.795 -1.88,1.32 -4.997,2.199 -6.237,4.197 -2.478,3.118 -6.436,3.118 -8.714,4.438 -2.08,1.119 -5.437,1.119 -9.155,1.119 -3.758,0 -5.636,0.2 -7.275,-2.439 -1.68,-2.438 -3.958,-0.68 -5.837,-2.878 -1.879,-2.238 -4.357,-2.878 -7.276,-5.556 -2.918,-2.439 -7.915,-3.758 -10.633,-3.758"
       fill="none"
       stroke="#1a171b"
       stroke-width="0.32"
       stroke-linecap="round"
       stroke-linejoin="round"
       id="path3893" />
    <path
       d="m 413.07,481.588 c 0,1.32 1.119,1.959 1.519,2.798 M 398.359,363.1 c 2.318,-0.24 4.437,0.64 5.037,1.28 m -0.72,-8.236 c 3.358,-1.04 5.437,-0.2 5.437,-0.2 m 2.318,-7.035 c 0,0 -1.639,-0.44 -4.957,0.6 m 14.232,18.868 c 0.88,-0.24 1.519,-0.24 1.519,-0.24 m -11.593,10.953 c 0.6,0.68 1.199,2.599 0.6,3.438"
       fill="none"
       stroke="#1a171b"
       stroke-width="0.8"
       stroke-linecap="round"
       stroke-linejoin="round"
       id="path3895" />
    <path
       clip-path="url(#a)"
       d="m 442.292,459.242 c 1.04,-2 0.64,-9.555 -1.44,-11.553 1.04,-1.32 0.2,-9.115 -2.718,-9.994 0.84,-0.64 1.24,-6.876 -1.439,-8.875 0.6,-2.638 -0.64,-10.434 -2.518,-10.633 1.679,-1.8 0,-9.315 -1.04,-11.753 0.84,-0.68 1.24,-7.556 -0.2,-8.235 1.24,-2 -0.4,-6.876 -1.039,-8.195 1.24,-1.56 0.84,-5.557 0,-8.675 1.24,0 2.479,-7.316 0.64,-9.554 1.839,-1.52 1.439,-9.754 -0.84,-10.194 1.44,-1.999 1.64,-8.435 -0.2,-10.434 1.04,-2.878 -3.557,-11.073 -6.236,-12.632 -2.718,-1.36 -4.797,-0.24 -5.836,-0.24 -2.279,-0.44 -4.158,-0.88 -7.716,1.12 -5.796,2.878 -6.635,8.434 -5.996,10.433 -1.28,0 -4.597,4.637 -2.918,6.636 -2.079,0 -4.597,3.558 -4.357,6.676 -2.08,0.88 -4.398,3.558 -3.958,5.996 -2.519,-0.68 -6.436,2.639 -7.915,4.198 -2.919,-2.199 -9.554,-0.2 -10.594,1.359 -2.079,-1.799 -9.554,-0.24 -9.994,1.32 -2.918,-2 -7.076,-1.76 -10.194,-0.24 -0.6,-2 -7.275,-3.319 -8.914,-1.52 -2.079,-3.118 -6.676,-5.796 -8.755,-4.917 -0.2,-1.759 -4.157,-5.317 -6.636,-5.517 -1.879,-2.438 -5.197,-5.996 -8.115,-5.556 -3.758,-4.677 -9.994,-2.878 -10.793,-2.439 -0.64,0.64 -1.88,2 -3.119,2.439 -2.718,0.88 -5.636,3.118 -6.875,7.076 -1.24,3.797 -2.719,9.114 0,13.791 -1.68,2.878 -1.48,12.872 1.039,14.871 -2.279,2.878 -0.84,8.635 0.2,11.753 -2.479,2.199 -2.479,11.073 -1.24,12.872 -2.918,2 -2.718,8.635 -1.239,12.193 -2.918,2.878 -2.718,9.314 -0.64,12.193 -2.278,3.118 -2.718,11.553 0.84,13.991 -0.84,5.996 2.719,13.312 5.837,15.55 -0.64,4.438 3.717,12.873 9.114,12.873 1.04,4.197 9.594,11.073 15.191,7.755 4.357,-2.878 3.958,-4.637 5.597,-7.315 0.64,-0.88 1.479,-1.8 2.318,-2.679 h -0.44 c -0.6,0.24 -1.239,-0.2 -1.239,-0.88 -0.2,-0.679 0,-1.319 0.64,-1.319 0.8,-0.44 1.639,-0.24 2.478,0.2 0.84,-1.559 1.88,-3.318 2.279,-5.996 0.84,-5.956 -8.115,-15.07 -12.473,-15.95 -1.878,-2.679 -4.157,-7.316 -6.436,-9.315 2.279,-4.237 0.4,-9.994 0.4,-9.994 0.44,-4.237 0.64,-6.875 -0.8,-10.673 1.84,-3.078 1.64,-8.435 0,-10.874 1.64,-2.438 2.48,-8.434 1.64,-11.313 0.64,-2.878 0.84,-5.316 -0.2,-8.634 2.079,-2.439 0,-7.796 -0.84,-9.795 1.48,2.24 4.158,7.116 9.994,7.356 4.997,4.437 6.436,3.318 10.594,3.758 1.239,2.878 9.354,3.118 11.433,1.319 1.24,1.999 8.115,3.798 10.194,0.68 1.04,0.68 7.275,2.438 9.354,-0.44 1.679,0.64 7.715,1.12 9.554,-2.439 2.079,0.64 7.276,0 9.794,-2.438 1.24,1.559 8.315,-3.798 8.315,-6.236 1.04,1.798 5.797,-4.878 6.636,-7.756 0,0 -1.439,6.196 0,6.876 -1.04,0.68 -0.6,8.875 1.48,9.994 -1.48,1.559 -0.24,9.554 1.638,10.194 -1.239,1.559 -1.439,9.994 1.28,12.432 -1.28,3.318 -0.84,8.675 0.8,9.554 -0.8,1.56 -0.4,8.635 2.318,8.635 -1.88,1.12 0,7.995 2.078,7.556 0,0 -0.84,1.319 -0.64,2.878 0.2,1.799 1.04,3.798 2.28,4.677 -1.04,0.44 -1.44,5.557 0.2,6.436 -1.24,-0.24 -2.68,5.077 -2.48,6.876 -1.039,0.68 -2.078,2.878 -1.238,5.557 -2.519,-0.24 -5.637,4.637 -4.997,7.315 h -0.2 c -1.68,-0.24 -5.837,1.999 -7.516,3.558 -3.917,-2.678 -5.197,-1.12 -12.232,-3.118 -7.076,-1.999 -13.112,-11.993 -27.064,-1.32 -11.833,8.875 -8.515,21.508 -6.236,26.625 -1.04,1.559 -2.679,6.636 -2.679,14.43 0,6.637 6.237,15.072 8.515,18.39 2.719,3.558 4.358,5.796 4.358,8.435 0,2.238 4.357,2.438 4.357,0 0,-3.079 0.84,-4.438 4.197,-9.515 3.518,-5.117 6.437,-12.672 6.237,-20.427 0,-4.238 -2.519,-5.117 -1.28,-8.435 1.88,-4.677 0.64,-6.436 -0.2,-9.314 2.08,-0.68 9.995,5.316 14.992,6.875 5.196,1.32 13.271,1.76 15.15,-1.119 1.68,0.68 12.073,-7.076 11.034,-11.313 3.318,1.12 9.994,-5.757 8.115,-10.874 3.118,0.44 8.115,-8.874 7.675,-13.991 1.48,0.24 3.318,-8.635 1.879,-11.073"
       fill="none"
       stroke="#1a171b"
       stroke-width="1.199"
       stroke-linecap="round"
       stroke-linejoin="round"
       id="path3897" />
    <path
       d="m 418.107,340.873 c -0.2,2.2 -3.119,4.877 -3.119,7.556 -0.2,2.638 -0.799,3.997 -1.639,5.756 -0.64,2 -0.4,3.998 -1.439,6.676 -0.84,2.439 -1.039,4.877 -2.518,6.197 -1.64,1.319 -2.279,2.678 -3.318,4.237 -0.84,1.759 -1.68,5.517 -2.718,7.076 -1.24,1.359 -2.28,2.918 -2.28,2.918 -3.717,0.2 -6.635,3.518 -7.674,5.077 -1.88,-0.44 -6.037,1.359 -7.476,3.358 -1.879,-0.92 -7.275,-0.92 -9.554,1.08 -1.68,-1.08 -6.676,-0.44 -9.354,0.439 -1.28,-0.44 -6.237,-1.52 -9.355,-0.88 -1.879,-0.88 -7.715,-0.64 -8.515,-1.119 -0.84,-0.44 -2.918,-2.199 -4.797,-2.638 -2.078,-0.44 -4.357,-0.88 -5.836,-2.679 -1.64,-1.998 -5.997,-8.874 -8.915,-9.314 -1.04,-1.56 -3.318,-3.318 -6.876,-4.877 -1.039,-1.56 -4.957,-5.357 -7.675,-6.436 -0.84,-1.36 -2.718,-3.358 -6.036,-3.798 l -0.84,-0.88 c 0.44,0 0.84,-0.2 1.28,-0.44 0.799,-0.439 1.838,-1.118 2.478,-1.758 2.079,0.88 7.076,4.877 7.915,5.317 1.04,0.44 3.518,2.438 4.158,3.118 0.6,0.88 3.118,1.999 4.357,2.638 1.24,0.68 2.918,2.679 3.518,3.358 0.4,0.64 3.957,6.196 5.197,6.876 1.439,0.64 3.518,2.638 4.357,3.558 0.84,0.64 4.597,0.64 6.436,1.32 1.68,0.679 4.158,3.557 6.236,3.557 2.08,0 3.758,0 5.837,-0.24 2.079,0 4.997,1.799 6.636,1.36 1.479,-0.24 1.679,-0.48 4.157,-1.12 2.279,-0.68 4.598,-0.24 7.916,-0.68 3.118,-0.44 5.396,-0.2 7.475,-1.319 2.279,-1.12 5.397,-0.24 6.636,-1.799 1.24,-1.559 4.357,-3.757 6.876,-5.317 0.4,-1.559 3.318,-4.677 3.518,-4.877 2.278,-2.238 2.278,-3.557 3.318,-5.116 1.039,-1.76 2.718,-5.317 3.558,-7.996 1.039,-2.638 1.039,-7.755 2.478,-9.554 1.04,-1.319 1.879,-3.078 2.079,-5.317 1.04,-1.319 1.439,-1.319 2.078,-3.318 0.84,-2.238 2.28,-3.358 2.479,-2.238 -0.4,0.24 -1.04,1.559 -1.04,2.238"
       fill="none"
       stroke="#1a171b"
       stroke-width="0.32"
       stroke-linecap="round"
       stroke-linejoin="round"
       id="path3899" />
    <path
       d="m 386.806,376.612 c 0.84,0.2 2.078,-0.64 1.878,-1.72 -0.84,0 -1.878,0.64 -2.758,0.88 m 10.834,-1.999 c 0.839,-0.64 1.639,-1.319 1.439,-2.398 -0.8,-0.48 -1.84,0.2 -2.679,0.64 m 7.076,-6.477 c 0.4,-1.079 1.04,-1.998 1.24,-3.078 -1.04,-0.92 -2.52,1.32 -2.959,2 m 6.876,-9.155 c -0.4,0.24 -0.64,0.68 -0.64,1.119 m 6.717,4.877 c 0.639,-2.878 2.638,-1.519 1.838,0.88 m 1.839,-9.675 c -0.4,0.24 -0.6,0.88 -0.8,1.28 m 3.718,-9.035 c -1.24,2.359 1,2.559 1.4,-0.24 m 3.757,-0.32 c -0.6,0 -1.2,0 -1.839,0.48 m 4.357,7.795 c -0.44,-0.88 -0.44,-2.438 0.64,-2.678 0.6,1.12 0.4,2.439 0.4,3.758 m -1.48,7.115 c 0.24,0.92 0,1.84 0,2.479 m 0.4,6.156 c -0.2,0.48 -0.4,1.16 -0.2,1.6 m -3.037,17.309 c -0.4,0.44 -0.6,1.08 -0.4,1.719 1,-0.2 1,-1.48 1.559,-2.159 m -7.036,9.994 c 0,1.08 -0.16,1.959 -0.16,2.798 m 1.279,7.835 c 0,0.68 0.8,2.919 -0.24,3.159 -1.039,0.2 -1.678,-2.24 -1.439,-2.919 m 9.674,-10.473 c 0,-0.68 0,-1.12 0.32,-1.6 m 0.84,23.347 c -0.44,-0.64 -0.2,-1.48 0.2,-2.16 0.4,0.68 1,1.52 1.599,1.96 m -5.997,20.827 c -0.4,-2.399 -2.478,-1.52 -1.239,0 m 3.118,6.237 c -0.2,0.919 0,1.798 0.6,2.238 m 2.039,6.156 c 0,0.88 -0.2,1.76 0.2,2.639 m 7.115,0.959 c 0.4,-0.24 0.6,-0.72 0.8,-0.96 m -0.96,-9.434 c 0.16,-0.68 0.16,-1.12 0.16,-1.599 m -3.518,-9.554 c -0.24,0.44 -0.24,0.88 0,1.36 1.44,0.2 1.44,-1.6 1.24,-2.76 m -3.158,-7.275 v 1.36 m -3.479,34.858 c 0.4,-0.64 0.6,-1.319 0.2,-1.998 -0.799,0.24 -1.199,1.119 -1.439,1.998 m 8.075,4.598 c 0.44,-0.44 1.28,-1.96 2.12,-1.52 0.599,0.44 -0.2,2.2 -0.44,2.599 m -7.276,11.833 c 1.08,-2.879 3.358,0 0.84,1.519 m -6.677,-11.034 c 1.84,-2.238 -1.479,-2.958 -2.318,-0.879 m -1.839,5.916 c 0.24,-1.079 1.28,-1.319 2.079,-1.759 m -7.435,8.395 c 0.399,-0.64 0.999,-1.519 1.758,-1.998 m 6.236,8.554 c 0.68,-0.44 1.12,-1.119 1.52,-1.838 m -10.394,12.872 c 0.44,0 0.88,-0.2 1.279,-0.4 m -34.139,1.999 c -1.04,-0.2 -1.04,-1.32 -0.8,-1.999 0.6,0 1.44,0 1.839,0.68 m -19.509,9.074 c 0.84,-0.44 1.24,-1.559 1.84,-2.478 m -49.17,-57.246 c 0,-0.88 -0.24,-1.959 0.2,-2.878 0.599,0.68 1.239,1.56 1.638,2.439 m -2.958,-13.272 c 0.24,-0.72 0.44,-1.64 1.04,-2.12 0.4,0.72 0.8,1.64 0.8,2.56 m -0.8,-10.235 c 0.24,-0.879 0.24,-1.758 1.079,-2.238 0.44,0.48 0.64,0.92 0.84,1.799 m -0.48,-12.233 c -0.24,0.68 -0.24,1.32 0.4,1.72 0.879,-0.4 1.279,-1.72 0.879,-2.8 m 3.118,-8.874 c -0.24,0.24 -0.24,0.44 -0.24,0.88 m 0,-9.994 c 0,0.68 0,1.12 0.24,1.519 m -10.873,71.516 c -0.8,-3.397 -3.438,1.56 -0.2,1.36 m 8.794,8.395 c -0.999,-1.56 -1.639,-0.24 -0.8,0.88 0.4,0.639 1.8,0.439 1,1.518 -0.2,0.44 -1.599,0.24 -1.839,0 m 30.462,-90.545 c -0.36,0 -0.76,0 -0.96,-0.48 m 10.794,2.239 c 0.64,0 1.08,0 1.679,-0.24 m 9.594,0.48 c -1.08,0 -1.519,1.12 -1.08,2.039 0.44,0.2 1.08,0 1.48,-0.44 m 8.915,-2.239 c -0.24,0.68 -1.08,0.68 -0.84,1.56 0.4,0.24 0.84,0.439 1.44,0 m 7.914,-0.44 c 0.64,0 1.08,-0.24 1.28,-0.72 m 9.514,-4.637 c -2.719,0.24 -1.68,2.398 0.4,0.88 m 7.675,-5.757 c 0,0.24 -0.2,0.48 -0.4,0.48 m 6.236,-4.478 c -0.16,0.48 -0.36,0.92 -0.56,1.12 m 2.239,-10.874 c -0.44,0.24 -0.64,0.68 -0.88,1.36 m -33.419,7.514 h -1.2 m -8.994,2.44 c -0.6,0.239 -1.839,0.439 -2.278,-0.44 0.44,-0.88 2.478,-0.64 2.078,-2 m -12.272,2 c -0.84,0 -1.64,-0.2 -1.879,-1.08 0.64,-0.64 1.679,-0.2 2.279,-0.64 1.239,-1.119 -0.8,-1.319 -1.84,-1.559 m -9.154,0 c -0.6,0 -1,-0.24 -1.199,-0.959 m -7.755,-6.876 c 0,0.64 0.44,1.08 1.279,1.28 m -7.516,6.515 c -1.199,-1.958 -2.638,1.08 -0.4,0.88 m 11.194,8.675 c -0.6,-0.72 -1.4,-0.72 -2.239,-0.48 0.24,0.68 0.84,1.4 1.64,1.599 M 313.33,365.099 c -1.2,-2.679 -3.278,0.88 -0.6,1.319 m -8.115,5.357 c -0.56,0.24 -1.159,0.88 -1.359,1.519 m 3.758,8.675 c -0.24,0.68 0.4,2.198 -0.88,2.198 -1.519,-0.2 -1.279,-2.838 -0.64,-3.758 m 13.673,-21.986 c 0.44,1.12 1.878,0.68 2.478,1.519 m 6.236,3.998 c 0.64,0.48 1.08,0.919 1.68,1.359 m -6.397,102.338 c -2.878,-0.64 -0.4,-3.838 0.4,-1.56 m -19.548,-11.552 c 0.2,0.44 0.6,1.319 0.2,1.758 -1.04,1.76 -1.44,-1.079 -1.68,-1.758 m 1.919,-11.753 v -2"
       fill="none"
       stroke="#faded4"
       stroke-width="1.679"
       stroke-miterlimit="8"
       id="path3903" />
    <path
       d="m 418.986,378.81 c -0.2,-0.64 -0.2,-1.079 0.2,-1.519 m 0.56,11.993 c -0.16,-0.44 -0.16,-0.88 0,-1.36 m 3.997,42.895 c 0,0.2 -0.2,0.2 -0.4,0.2 0,-0.2 -0.24,-0.64 -0.24,-0.88 m -114.09,-25.344 c -0.2,-0.4 -0.4,-0.84 -0.4,-1.28 m -0.24,-11.593 c -0.2,0.24 -0.4,0.68 -0.2,0.88 m -2.438,38.856 c 0.2,-0.64 0.2,-1.319 0.4,-1.759 m 2.638,-10.473 c 0.24,-0.64 0.44,-1.56 0.88,-2.239"
       fill="none"
       stroke="#f7c2b0"
       stroke-width="1.679"
       stroke-miterlimit="8"
       id="path3905" />
    <path
       d="m 321.485,371.095 c -1.399,-0.68 -2.238,0 -0.8,1.16 -0.839,0.879 -1.638,0.2 -2.478,-0.24"
       fill="none"
       stroke="#faded4"
       stroke-width="1.679"
       stroke-miterlimit="8"
       id="path3907" />
  </g>
</svg>
